<?xml version="1.0" encoding="iso-8859-1"?>
<!-- Uploaded to: SVG Repo, www.svgrepo.com, Generator: SVG Repo Mixer Tools -->
<svg fill="#000000" height="800px" width="800px" version="1.1" id="Layer_1" xmlns="http://www.w3.org/2000/svg" xmlns:xlink="http://www.w3.org/1999/xlink" 
	 viewBox="0 0 512 512" xml:space="preserve">
<g>
	<g>
		<path d="M155.282,244.77c-16.972,0-30.781,13.808-30.781,30.781c0,5.964,4.836,10.801,10.801,10.801
			c5.965,0,10.801-4.837,10.801-10.801c0-5.061,4.118-9.18,9.18-9.18c5.055,0,9.168,4.118,9.168,9.18
			c0,5.964,4.836,10.801,10.801,10.801s10.801-4.837,10.801-10.801C186.051,258.578,172.248,244.77,155.282,244.77z"/>
	</g>
</g>
<g>
	<g>
		<path d="M511.196,330.883c-3.067-21.696-14.59-40.818-31.905-53.393c-0.004-1.223-0.012-2.537-0.021-3.924
			c-0.008-1.222-0.015-2.263-0.015-2.901c0-29.441-6.769-57.725-20.11-84.185c27.375-40.538,30.261-104.184,27.64-151.526
			c-0.597-10.908-7.693-20.16-18.077-23.574c-10.409-3.421-21.639-0.175-28.614,8.277c-16.898,20.499-40.229,46.402-69.411,77.064
			c-27.491-14.967-58.06-24.302-89.852-27.502l34.781-34.773c4.219-4.218,4.219-11.057,0.001-15.276
			c-4.218-4.219-11.056-4.219-15.275-0.002L266.799,52.7V11.21c0-5.964-4.836-10.801-10.801-10.801
			c-5.965,0-10.801,4.837-10.801,10.801v41.492L211.66,19.17c-4.218-4.216-11.057-4.216-15.274,0.002
			c-4.218,4.218-4.217,11.057,0.001,15.276l34.781,34.773c-31.793,3.2-62.362,12.535-89.852,27.502
			c-29.183-30.661-52.514-56.565-69.416-77.068C64.929,11.21,53.7,7.96,43.29,11.384c-10.384,3.414-17.48,12.667-18.077,23.567
			c-2.62,47.348,0.266,110.995,27.641,151.532c-13.341,26.46-20.11,54.744-20.11,84.185c0,0.638-0.006,1.68-0.015,2.901
			c-0.009,1.387-0.016,2.7-0.021,3.924c-17.314,12.572-28.837,31.696-31.905,53.393c-3.33,23.549,3.752,46.25,19.942,63.927
			c30.568,33.36,63.485,60.087,97.835,79.438c43.982,24.777,90.217,37.341,137.419,37.341c53.048,0,104.689-15.812,153.487-46.997
			c5.027-3.213,6.498-9.891,3.286-14.918c-3.212-5.027-9.89-6.498-14.917-3.286c-45.269,28.929-92.996,43.598-141.855,43.598
			c-98.142,0-173.442-59.694-219.326-109.769c-11.747-12.826-16.89-29.272-14.481-46.31c2.424-17.141,12.511-32.651,26.979-41.489
			c6.567-4.009,13.893-6.634,21.767-7.799l22.17-3.267c5.307-0.783,9.236-5.355,9.226-10.719
			c-0.001-0.49,0.199-49.345,25.099-74.289c9.624-9.641,21.512-14.327,36.348-14.327c38.576,0,44.888,72.088,45.867,90.642
			c-2.136,2.759-3.623,6.017-4.247,9.494c-1.025,5.707,0.273,11.477,3.651,16.237l35.76,50.532
			c-1.62,16.658-15.703,29.723-32.785,29.723c-8.791,0-17.383-1.709-25.526-5.073c-8.141-3.373-15.422-8.239-21.623-14.441
			l-1.943-1.954c-4.207-4.23-11.046-4.248-15.275-0.041c-4.23,4.207-4.248,11.045-0.042,15.275l1.962,1.973
			c8.237,8.238,17.875,14.678,28.659,19.149c7.418,3.065,15.117,5.065,22.985,6.03v30.146c0,5.964,4.836,10.801,10.801,10.801
			h87.938c5.965,0,10.801-4.837,10.801-10.801v-30.146c7.87-0.967,15.57-2.967,22.995-6.034
			c10.774-4.466,20.412-10.907,28.669-19.164l1.943-1.954c4.207-4.23,4.188-11.068-0.042-15.275
			c-4.23-4.208-11.068-4.19-15.275,0.041l-1.923,1.933c-6.221,6.222-13.502,11.088-21.633,14.457
			c-8.152,3.369-16.745,5.077-25.535,5.077c-17.081,0-31.165-13.065-32.785-29.723l35.753-50.519c3.421-4.82,4.71-10.647,3.63-16.41
			c-0.653-3.487-2.171-6.739-4.332-9.48c1.009-18.778,7.416-90.496,45.982-90.496c14.836,0,26.726,4.687,36.348,14.327
			c24.9,24.946,25.1,73.799,25.099,74.276c-0.023,5.374,3.909,9.949,9.226,10.733l22.163,3.266
			c7.881,1.167,15.208,3.791,21.771,7.799c14.472,8.839,24.559,24.349,26.983,41.49c2.409,17.037-2.734,33.484-14.48,46.307
			c-10.391,11.341-21.211,22.015-32.155,31.724c-4.463,3.959-4.871,10.785-0.913,15.246c2.134,2.406,5.102,3.633,8.084,3.633
			c2.548,0,5.107-0.896,7.163-2.722c11.5-10.2,22.855-21.401,33.748-33.291C507.445,377.133,514.526,354.432,511.196,330.883z
			 M456.761,33.403c1.881-2.279,4.265-1.808,5.203-1.5c1.149,0.378,3.101,1.43,3.254,4.24c1.844,33.315,1.433,90.893-18.514,129.06
			c-7.4-11.015-15.951-21.363-25.569-30.95l29.417-33.097c3.963-4.459,3.561-11.286-0.899-15.249
			c-4.456-3.962-11.284-3.56-15.249,0.898l-29.307,32.974c-4.986-4.064-10.185-7.914-15.55-11.555
			C417.584,78.667,440.178,53.521,456.761,33.403z M46.782,36.137c0.154-2.804,2.105-3.856,3.254-4.234
			c0.938-0.308,3.321-0.78,5.198,1.495c16.588,20.124,39.185,45.274,67.217,74.827c-5.366,3.641-10.565,7.49-15.55,11.555
			L77.596,86.806c-3.963-4.459-10.791-4.859-15.249-0.898c-4.459,3.963-4.86,10.79-0.899,15.249l29.417,33.097
			c-9.618,9.587-18.17,19.935-25.569,30.949C45.35,127.037,44.939,69.459,46.782,36.137z M245.2,418.906h-22.367v-19.739
			c8.289-1.671,15.896-5.233,22.367-10.206V418.906z M289.169,399.168v19.739h-22.367v-29.944
			C273.272,393.934,280.88,397.496,289.169,399.168z M256.001,327.33l-29.298-41.405h29.073c0.076,0,0.149-0.01,0.225-0.011
			c0.076,0.001,0.149,0.011,0.225,0.011l29.075,0.004L256.001,327.33z M444.21,263.248l-13.355-1.968
			c-1.337-17.704-7.003-56.096-30.936-80.13c-13.699-13.757-31.094-20.733-51.702-20.733c-53.691,0-64.844,73.752-67.158,103.908
			h-24.834c-0.076,0-0.149,0.01-0.225,0.011c-0.076-0.001-0.149-0.011-0.225-0.011H230.82
			c-2.308-30.226-13.435-103.908-67.036-103.908c-20.609,0-38.004,6.976-51.702,20.733c-23.932,24.035-29.599,62.428-30.936,80.13
			l-13.363,1.969c-4.598,0.682-9.055,1.753-13.37,3.161c0.667-26.467,7.557-51.861,20.527-75.542
			c0.011-0.021,0.022-0.041,0.032-0.062c0.004-0.008,0.008-0.015,0.012-0.023c9.7-17.695,22.529-33.804,38.131-47.883
			c9.652-8.713,20.325-16.566,31.727-23.339c32.994-19.616,71.432-29.986,111.159-29.986s78.164,10.37,111.161,29.988
			c11.399,6.772,22.074,14.624,31.727,23.341c15.6,14.076,28.428,30.185,38.129,47.881c0.004,0.008,0.008,0.015,0.012,0.023
			c0.011,0.021,0.021,0.04,0.032,0.06c12.97,23.681,19.859,49.075,20.527,75.542C453.272,265.002,448.812,263.929,444.21,263.248z"
			/>
	</g>
</g>
<g>
	<g>
		<path d="M437.261,431.323c-3.638-4.73-10.417-5.615-15.147-1.977c-0.489,0.376-0.98,0.75-1.471,1.123
			c-4.751,3.606-5.679,10.381-2.073,15.133c2.125,2.8,5.349,4.272,8.612,4.272c2.276,0,4.57-0.717,6.523-2.199
			c0.528-0.401,1.056-0.802,1.581-1.208C440.013,442.831,440.898,436.049,437.261,431.323z"/>
	</g>
</g>
<g>
	<g>
		<path d="M356.719,244.77c-16.966,0-30.769,13.808-30.769,30.781c0,5.964,4.836,10.801,10.801,10.801
			c5.965,0,10.801-4.837,10.801-10.801c0-5.062,4.113-9.18,9.168-9.18c5.061,0,9.18,4.118,9.18,9.18
			c0,5.964,4.836,10.801,10.801,10.801c5.965,0,10.801-4.837,10.801-10.801C387.499,258.579,373.692,244.77,356.719,244.77z"/>
	</g>
</g>
</svg>