<svg xmlns="http://www.w3.org/2000/svg" xmlns:xlink="http://www.w3.org/1999/xlink" width="458.66" height="87.67" viewBox="0 0 458.66 87.67">
  <defs>
    <style>
      .cls-1 {
        isolation: isolate;
      }

      .cls-2 {
        fill: #090909;
      }

      .cls-3 {
        fill: #080808;
      }

      .cls-4 {
        fill: #0a0a0a;
      }
    </style>
  </defs>
  <title>asss_logo_with_bug-01</title>
  <g id="Layer_2" data-name="Layer 2">
    <image class="cls-1" width="914" height="223" transform="scale(0.39)" xlink:href="../../../Downloads/4C7B0CB00B443C01.png"/>
    <g id="Layer_1-2" data-name="Layer 1">
      <g>
        <path class="cls-2" d="M382.14,15.51,390.67,12Q405,6.12,419.26.24a2.48,2.48,0,0,1,2.13,0q18.09,7.43,36.22,14.83a.91.91,0,0,1,.71,1c0,3.47.15,7,.19,10.41.07,4.86.2,9.7.13,14.57a99.8,99.8,0,0,1-1.4,16.91c-1.4,7.7-5.25,14-10.89,19.31a36.94,36.94,0,0,1-18.54,9.64A38,38,0,0,1,384.7,63.25a46.84,46.84,0,0,1-2.32-12.39c-.75-9.71-.41-19.41-.24-29.12C382.16,19.67,382.14,17.63,382.14,15.51Zm72.65,22.36c0-6.49,0-13,0-19.48a1.22,1.22,0,0,0-.9-1.4c-1.88-.69-3.71-1.52-5.56-2.24L421.24,3.89a3.3,3.3,0,0,0-2.65,0L386.47,17.16c-.65.25-.71.61-.71,1.19,0,13,0,25.9,0,38.85a2.86,2.86,0,0,0,.22,1.23c1.29,2.69,2.49,5.4,4,8A32.8,32.8,0,0,0,405,80.92a37.35,37.35,0,0,0,19.38,2.92,31.72,31.72,0,0,0,23-12.48c3-3.84,4.94-8.28,7-12.63a3.77,3.77,0,0,0,.37-1.62C454.81,50.71,454.79,44.29,454.79,37.87Z"/>
        <path class="cls-3" d="M397.67,58.43a34.43,34.43,0,0,1,1-4.52,5.16,5.16,0,0,1,5-3.52,3.91,3.91,0,0,0,1.64-.38,1.36,1.36,0,0,0,.58-1,1.16,1.16,0,0,0-.73-.77A40.08,40.08,0,0,0,401,47.6c-2.22-.2-4.44-.28-6.63-.43a3.74,3.74,0,0,1-1.36-.3c-.36-.19-.84-.6-.84-.94A1.29,1.29,0,0,1,393,45a41.75,41.75,0,0,1,4.35-.6c2.33-.21,4.65-.3,7-.51.71-.07,1.68-.15,1.65-1.15s-.9-1.16-1.7-1.28c-4.52-.73-6.15-2.59-6.35-7.24a27.21,27.21,0,0,1,.15-2.85,1.63,1.63,0,0,1,3.25,0c.09,1.49.13,3,.22,4.46.11,1.94,1.14,2.62,2.93,1.75a6.81,6.81,0,0,0,2.47-1.8,6.72,6.72,0,0,1,5.86-2.71l16.54.15a5.09,5.09,0,0,1,3.63,1.77,13,13,0,0,0,3.13,2.52c1.83,1,2.9.26,3.05-1.81a45.33,45.33,0,0,1,.5-4.84c.11-.62.8-1.13,1.2-1.71A6.34,6.34,0,0,1,442,30.87a11.6,11.6,0,0,1,.19,6.4,5.24,5.24,0,0,1-5.25,4.16,2.78,2.78,0,0,0-1.36.26,1.82,1.82,0,0,0-.88,1.13c-.05.25.56.83.94.89,1.77.28,3.54.45,5.32.62s3.86.28,5.77.43a1.28,1.28,0,0,1,.71.19,12.76,12.76,0,0,1,1.06,1c-.35.32-.67.84-1.06.9-1.68.28-3.4.43-5.1.58-2.09.19-4.2.32-6.31.53-.64.06-1.44.21-1.38,1.15s.8,1.09,1.53,1.2c.39.06.8,0,1.19.06a5.33,5.33,0,0,1,5.19,5.38,36,36,0,0,1-.2,5.39c0,.43-.47,1.11-.79,1.18a1.48,1.48,0,0,1-1.23-.75,28,28,0,0,1-1.14-4c-.18-.83-.05-1.71-.22-2.52a1.47,1.47,0,0,0-.9-1,17.34,17.34,0,0,0-3.3.08c-.32.05-.84.37-.9.64-.43,1.65-1.64,2.73-2.74,3.86A32.61,32.61,0,0,1,428.39,61a7,7,0,0,1-4.65,1.67q-3.17,0-6.33,0a8.26,8.26,0,0,1-5.17-1.77c-2.09-1.64-4.09-3.33-5.14-5.87a1.73,1.73,0,0,0-1.12-.87c-2.63-.41-4.05.08-4.24,2.69a33.05,33.05,0,0,1-.46,3.58c-.21,1.11-.81,1.47-1.91,1.41s-1.25-.79-1.34-1.62c-.06-.6-.11-1.2-.17-1.8A.25.25,0,0,1,397.67,58.43Zm20.82-22.08c-2.39,0-4.61-.06-6.81,0-1.53.06-1.78.25-1.81,1.77-.1,4.67-.23,9.34-.12,14,.06,2.67,3.72,6.46,6.39,7.1a1.49,1.49,0,0,0,2.09-1.34,15.71,15.71,0,0,0,.24-2.64c0-5.85,0-11.72,0-17.56C418.49,37.23,418.49,36.74,418.49,36.35Zm3.59-.25c0,.28-.06.4-.06.53,0,5.19,0,10.37,0,15.53,0,1.9.13,3.82.32,5.72.13,1.23.84,1.62,2,1.34,3.36-.77,6.56-4.73,6.54-8.15,0-3.09-.13-6.16-.19-9.23,0-1.73,0-3.46,0-5.23Z"/>
        <path class="cls-4" d="M420.38,20.12c4.5,0,8.94,4.18,8.83,8.32a1.94,1.94,0,0,1-.15.94,16.61,16.61,0,0,1-1,1.45,6.21,6.21,0,0,1-1.35-1.2,7.44,7.44,0,0,1-.67-1.89c-.75-2.48-4.05-4.91-6.29-4.36-2.52.62-4.56,2-5.29,4.72a7.07,7.07,0,0,1-.91,2.13c-.64.94-1.57.79-1.87-.3a5.69,5.69,0,0,1-.17-2.49A9.59,9.59,0,0,1,420.38,20.12Z"/>
      </g>
    </g>
  </g>
</svg>
