<?xml version="1.0" encoding="iso-8859-1"?>
<!-- Uploaded to: SVG Repo, www.svgrepo.com, Generator: SVG Repo Mixer Tools -->
<svg fill="#000000" height="800px" width="800px" version="1.1" id="Layer_1" xmlns="http://www.w3.org/2000/svg" xmlns:xlink="http://www.w3.org/1999/xlink" 
	 viewBox="0 0 512 512" xml:space="preserve">
<g>
	<g>
		<path d="M404.371,97.773c-19.272-12.417-28.932-22.077-41.347-41.346c-1.442-2.239-3.924-3.592-6.588-3.592
			c-2.663,0-5.145,1.353-6.588,3.592C337.43,75.7,327.77,85.36,308.502,97.773c-2.239,1.442-3.592,3.924-3.592,6.587
			s1.352,5.145,3.592,6.588c19.269,12.418,28.93,22.078,41.346,41.347c1.443,2.239,3.925,3.592,6.588,3.592s5.145-1.353,6.588-3.592
			c12.413-19.266,22.073-28.926,41.347-41.347c2.239-1.444,3.592-3.925,3.592-6.588C407.963,101.698,406.61,99.215,404.371,97.773z
			 M356.436,134.112c-8.847-12.243-17.507-20.903-29.751-29.751c12.243-8.846,20.903-17.506,29.751-29.751
			c8.847,12.244,17.505,20.902,29.752,29.751C373.942,113.21,365.282,121.869,356.436,134.112z"/>
	</g>
</g>
<g>
	<g>
		<path d="M460.574,40.541c-0.001-2.078-0.826-4.072-2.297-5.541L426.175,2.899c-3.06-3.06-8.023-3.06-11.083,0L399.309,18.68
			C380.849,6.538,359.256,0,336.65,0c-30.551,0-59.271,11.896-80.871,33.498l-0.713,0.713l-0.713-0.713
			C232.754,11.896,204.034,0,173.484,0c-30.551,0-59.272,11.896-80.872,33.498C71.01,55.1,59.114,83.821,59.114,114.37
			c0,30.549,11.896,59.269,33.494,80.867L234.936,337.69c5.377,5.379,12.525,8.341,20.129,8.341c7.607,0,14.757-2.963,20.132-8.342
			L393.04,219.742c3.059-3.062,3.056-8.024-0.005-11.082c-3.062-3.058-8.023-3.056-11.082,0.005L264.11,326.61
			c-2.379,2.381-5.676,3.747-9.044,3.747c-3.416,0-6.628-1.331-9.043-3.747L103.693,184.156
			c-18.64-18.64-28.906-43.424-28.906-69.787s10.266-51.149,28.907-69.79c18.641-18.64,43.426-28.906,69.79-28.906
			c26.363,0,51.147,10.266,69.787,28.907l6.253,6.254c3.062,3.059,8.023,3.061,11.082,0l6.255-6.253
			c18.641-18.642,43.426-28.908,69.79-28.908c18.391,0,36.008,5.005,51.312,14.355L382.99,35c-1.47,1.469-2.296,3.463-2.296,5.541
			s0.826,4.072,2.296,5.541l32.104,32.102c1.531,1.53,3.536,2.295,5.541,2.295c2.006,0,4.011-0.765,5.541-2.296l1.667-1.667
			c4.916,11.84,7.502,24.646,7.502,37.852c0,26.363-10.266,51.147-28.906,69.789c-3.06,3.061-3.06,8.023,0,11.082
			c3.06,3.062,8.023,3.06,11.082,0c21.601-21.602,33.497-50.323,33.497-80.871c0-17.504-3.919-34.401-11.319-49.709l18.578-18.578
			C459.748,44.612,460.574,42.619,460.574,40.541z M420.635,61.56l-21.02-21.019l21.019-21.019l21.02,21.019L420.635,61.56z"/>
	</g>
</g>
<g>
	<g>
		<path d="M446.073,350.708l-16.63-16.63c-5.379-5.38-12.534-8.344-20.145-8.344c-7.61,0-14.763,2.963-20.144,8.344l-40.476,40.475
			c-3.06,3.06-3.06,8.023,0,11.082c3.06,3.06,8.022,3.06,11.082,0l40.476-40.475c2.419-2.42,5.636-3.752,9.06-3.752
			c3.424,0,6.641,1.332,9.06,3.752l16.632,16.632c4.801,4.801,5.021,12.529,0.499,17.594l-87.659,98.203
			c-2.427,2.72-5.912,4.28-9.559,4.28H141.441v-17.935c0-4.328-3.509-7.837-7.837-7.837c-4.328,0-7.837,3.509-7.837,7.837v29.903
			c0,1.349-1.139,2.489-2.487,2.489H69.588c-1.349,0-2.488-1.14-2.488-2.489v-8.685h37.594c4.328,0,7.837-3.509,7.837-7.837
			c0-4.328-3.509-7.837-7.837-7.837H67.1v-11.172h37.594c4.328,0,7.837-3.509,7.837-7.837s-3.509-7.837-7.837-7.837H67.1v-11.174
			h37.594c4.328,0,7.837-3.509,7.837-7.837c0-4.328-3.509-7.837-7.837-7.837H67.1v-11.172h37.594c4.328,0,7.837-3.509,7.837-7.837
			s-3.509-7.837-7.837-7.837H67.1v-11.173h37.594c4.328,0,7.837-3.509,7.837-7.837s-3.509-7.837-7.837-7.837H67.1v-6.619
			c0-1.35,1.139-2.489,2.488-2.489h53.694c1.348,0,2.487,1.14,2.487,2.489v76.069c0,4.328,3.509,7.837,7.837,7.837
			c4.328,0,7.837-3.509,7.837-7.837V378.8h103.68c7.066,0,12.815,5.748,12.815,12.815v16.522c0,7.066-5.748,12.814-12.815,12.814
			h-71.247c-4.328,0-7.837,3.509-7.837,7.837s3.509,7.837,7.837,7.837h71.247c9.283,0,17.541-4.464,22.745-11.357h49.02
			c2.078,0,4.072-0.825,5.541-2.296l14.344-14.345c3.06-3.061,3.06-8.023,0-11.082c-3.06-3.062-8.023-3.06-11.082,0l-12.05,12.05
			h-40.069c0.024-0.483,0.037-0.969,0.037-1.457v-16.522c0-15.709-12.779-28.488-28.488-28.488h-103.68v-7.652
			c0-10.015-8.146-18.162-18.16-18.162H69.588c-10.014,0-18.161,8.148-18.161,18.162v138.363c0,10.014,8.147,18.162,18.161,18.162
			h53.694c8.744,0,16.062-6.213,17.778-14.456h197.213c8.108,0,15.855-3.469,21.252-9.517l87.659-98.203
			C457.235,378.563,456.747,361.382,446.073,350.708z"/>
	</g>
</g>
</svg>