<?xml version="1.0" encoding="utf-8"?>
<!-- Generator: Adobe Illustrator 24.0.3, SVG Export Plug-In . SVG Version: 6.00 Build 0)  -->
<svg version="1.1" id="Layer_1" xmlns="http://www.w3.org/2000/svg" xmlns:xlink="http://www.w3.org/1999/xlink" x="0px" y="0px"
	 viewBox="0 0 400 400" style="enable-background:new 0 0 400 400;" xml:space="preserve">
<path d="M203.7,3.6c11.6,0,21.1,9.4,21.1,21.1c0,8.6-7.8,16.1-15.3,19.3l5.7,54.4c40.3,0.5,72.8,33.3,72.8,73.7l0,31.6h-10.5
	c23.3,0,42.1,18.9,42.1,42.1v21.1c0,23.3-18.8,42.1-42.1,42.1h10.5v80c-19.2,8.9-49.8,14.7-84.2,14.7s-65-5.8-84.2-14.7v-80H130
	c-23.3,0-42.1-18.9-42.1-42.1v-21.1c0-23.3,18.9-42.1,42.1-42.1h-10.5V172c0-40.4,32.5-73.2,72.8-73.7l5.7-54.4
	c-7.5-3.2-15.3-10.7-15.3-19.3C182.6,13,192,3.6,203.7,3.6z M277.4,214.1H130c-17.4,0-31.6,14.1-31.6,31.6v21.1
	c0,17.4,14.1,31.6,31.6,31.6h147.4c17.4,0,31.6-14.1,31.6-31.6v-21.1C308.9,228.3,294.8,214.1,277.4,214.1z M203.7,322l-10.5-2.5
	v20.9h21.1v-20.9L203.7,322z M277.4,340.5c0-21.1-8-17.7-21.1-21.1v21.1H277.4z M224.7,320v20.4h21.1v-20.7L224.7,320z M161.6,319.7
	v20.7h21.1V320L161.6,319.7z M130,340.5H151v-21.1C138,322.8,130,319.4,130,340.5z M203.7,372l10.5-0.2V351h-21.1v20.8L203.7,372z
	 M273.6,351h-17.3v12.6C264.6,360,270.3,355.6,273.6,351z M224.7,351v20c8-0.8,15-2.2,21.1-3.8V351H224.7z M161.6,351v15.8h-1.5
	c6.4,1.9,13.9,3.3,22.5,4.2v-20H161.6z M133.7,351c3.3,4.6,9,9,17.3,12.6V351H133.7z M151,245.7h21.1v21.1H151V245.7z M235.2,245.7
	h21.1v21.1h-21.1V245.7z M130,224.7h12.6c-10.7,6.4-17.9,18.2-17.9,31.6c0,13.4,7.2,25.1,17.9,31.6H130c-11.6,0-21.1-9.4-21.1-21.1
	v-21.1C108.9,234.1,118.4,224.7,130,224.7z M277.4,224.7c11.6,0,21.1,9.4,21.1,21.1v21.1c0,11.6-9.4,21.1-21.1,21.1h-12.6
	c10.7-6.4,17.9-18.2,17.9-31.6c0-13.4-7.2-25.1-17.9-31.6H277.4z M180.5,287.8c10.7-6.4,17.9-18.2,17.9-31.6
	c0-13.4-7.2-25.1-17.9-31.6h46.2c-10.7,6.4-17.9,18.2-17.9,31.6c0,13.4,7.2,25.1,17.9,31.6H180.5z"/>
</svg>
