<?xml version="1.0" encoding="utf-8"?>
<!-- Generator: Adobe Illustrator 24.0.3, SVG Export Plug-In . SVG Version: 6.00 Build 0)  -->
<svg version="1.1" id="Layer_1" xmlns="http://www.w3.org/2000/svg" xmlns:xlink="http://www.w3.org/1999/xlink" x="0px" y="0px"
	 viewBox="0 0 620 620" style="enable-background:new 0 0 620 620;" xml:space="preserve">
<style type="text/css">
	
		.st0{fill:none;stroke:#000000;stroke-width:32;stroke-linecap:round;stroke-linejoin:round;stroke-miterlimit:8;stroke-opacity:0.9;}
</style>
<path class="st0" d="M382.3,183.6C480.1,63,329.9,79.4,308.1,68.5c-7.7-3.8-15.2-40.8-32.2-32.3c-26.3,13.1-24,81.5-26.9,104.3
	c-1.5,12.4-18.9,30.2-24.6,43c-9.1,20.5-19.1,44.8-35.8,70.2c-16.7,25.4-51.6,45.1-69.1,64.6C45.2,401,77.1,498.2,158.7,561
	c82.6,63.5,427.4,39.8,329.9-106.4"/>
<path class="st0" d="M343.7,239.6c24.2,88.7-10.6,181.3-10.6,268.1c0,10,19.8,0.4,29.5,2.1"/>
<path class="st0" d="M217.2,332.8c19.5,2.9,37.3,17.2,51.1,30.6c68.7,66.6-19.1,111.4-23.9,135c-1.1,5.3,21.6,9,26.1,9.5"/>
<path class="st0" d="M314.9,41c13.2-12.4,15.8,9.3,18.2,21.3"/>
</svg>
