<?xml version="1.0" encoding="utf-8"?>
<!-- Generator: Adobe Illustrator 24.0.3, SVG Export Plug-In . SVG Version: 6.00 Build 0)  -->
<svg version="1.1" id="Layer_1" xmlns="http://www.w3.org/2000/svg" xmlns:xlink="http://www.w3.org/1999/xlink" x="0px" y="0px"
	 viewBox="0 0 577.9 577.9" style="enable-background:new 0 0 577.9 577.9;" xml:space="preserve">
<path d="M287.1,372.5c-19.1,0-34.5,15.5-34.5,34.5c0,19.1,15.5,34.5,34.5,34.5c19.1,0,34.5-15.5,34.5-34.5c0,0,0,0,0,0
	C321.6,387.9,306.1,372.5,287.1,372.5z M287.1,424.8c-9.9,0-17.8-8-17.8-17.8c0-9.9,8-17.8,17.8-17.8c9.9,0,17.8,8,17.8,17.8
	C304.9,416.8,296.9,424.8,287.1,424.8z"/>
<path d="M351.5,522.8c19.1,0,34.5-15.4,34.5-34.5c0-19.1-15.4-34.5-34.5-34.5c-19.1,0-34.5,15.4-34.5,34.5c0,0,0,0,0,0
	C317,507.3,332.4,522.7,351.5,522.8z M351.5,470.4c9.9,0,17.9,8,17.9,17.8c0,9.9-8,17.9-17.8,17.9c-9.9,0-17.9-8-17.9-17.8
	c0,0,0,0,0,0C333.7,478.4,341.6,470.4,351.5,470.4L351.5,470.4z"/>
<path d="M222.7,453.7c-19.1,0-34.5,15.4-34.5,34.5c0,19.1,15.4,34.5,34.5,34.5c19.1,0,34.5-15.4,34.5-34.5c0,0,0,0,0,0
	C257.1,469.2,241.7,453.8,222.7,453.7z M222.7,506.1c-9.9,0-17.9-8-17.9-17.8c0-9.9,8-17.9,17.8-17.9c9.9,0,17.9,8,17.9,17.8
	c0,0,0,0,0,0C240.5,498.1,232.5,506.1,222.7,506.1z"/>
<path d="M537.6,249.4v-83.9c0-18.4-14.9-33.3-33.4-33.3h-98.4C388.7,66.6,321.6,27.3,256,44.5c-42.9,11.2-76.4,44.7-87.6,87.6H69.9
	c-18.4,0-33.3,14.9-33.3,33.3v83.9c-13.5,5.1-22.4,18-22.4,32.4v37.4c-0.2,4.6,3.4,8.5,8,8.7c4.6,0.2,8.5-3.4,8.7-8
	c0-0.2,0-0.5,0-0.7v-37.4c0-9.5,7.5-17.4,17-17.8h47.1c0.1,0,0.2,0,0.3,0c9.6,0.3,17.3,8.2,17.3,17.9v37.4c0,4.6,3.7,8.3,8.3,8.3
	c4.6,0,8.3-3.7,8.3-8.3v-37.4c0-15.7-10.7-29.5-26-33.4v-49.5h60.9v146.5c0,4.6,3.7,8.3,8.3,8.3h83.2c-3,2.4-5.6,5-8,8L169.4,459
	c-17.5,21.8-14,53.6,7.8,71c9,7.2,20.1,11.1,31.6,11.1h156.6c27.9,0,50.5-22.7,50.5-50.6c0-11.5-3.9-22.6-11.1-31.6l-78.3-97.5
	c-2.4-2.9-5.1-5.6-8-8h83.2c4.6,0,8.3-3.7,8.3-8.3V198.8h61v49.5c-15.2,4-25.9,17.7-26,33.4v37.4c0,4.6,3.7,8.3,8.3,8.3
	c4.6,0,8.3-3.7,8.3-8.3v-37.4c0-9.7,7.7-17.5,17.3-17.9c0.1,0,0.2,0,0.3,0h47c9.5,0.5,16.9,8.4,17,17.9v37.4c-0.2,4.6,3.4,8.5,8,8.7
	c4.6,0.2,8.5-3.4,8.7-8c0-0.2,0-0.5,0-0.7v-37.4C560,267.3,551.1,254.5,537.6,249.4z M391.8,469.5c11.7,14.6,9.4,35.9-5.2,47.6
	c-6,4.8-13.5,7.4-21.2,7.4H208.8c-18.7,0-33.9-15.2-33.9-33.9c0-7.7,2.6-15.2,7.4-21.2l78.3-97.5c12.9-16.1,39.9-16.1,52.8,0
	L391.8,469.5z M487.6,247.1V194l32.5-32.5c0.4,1.3,0.7,2.7,0.8,4.1v81.6H487.6z M86.5,247.1H53.2v-81.6c0.1-1.4,0.4-2.8,0.8-4.1
	L86.5,194L86.5,247.1z M98.3,182.2l-32.5-32.5c1.3-0.4,2.7-0.7,4.1-0.8h95.3c-0.6,4.9-0.9,9.7-1,14.6v18.8L98.3,182.2z M393.3,336.9
	H180.8V163.4c0-58.7,47.6-106.3,106.2-106.3s106.2,47.6,106.2,106.3V336.9z M410,182.1v-18.8c0-4.9-0.4-9.8-1-14.6h95.3
	c1.4,0.1,2.7,0.4,4.1,0.8l-32.5,32.5L410,182.1z"/>
<path d="M345,128.3H229.2c-4.6,0-8.3,3.7-8.3,8.3c0,0,0,0,0,0v53.7c0,4.6,3.7,8.3,8.3,8.3c0,0,0,0,0,0H345c4.6,0,8.3-3.7,8.3-8.3
	c0,0,0,0,0,0v-53.6C353.3,132.1,349.7,128.4,345,128.3C345,128.3,345,128.3,345,128.3z M336.6,182h-99.2v-37h99.2V182z"/>
</svg>
