<?xml version="1.0" encoding="iso-8859-1"?>
<!-- Uploaded to: SVG Repo, www.svgrepo.com, Generator: SVG Repo Mixer Tools -->
<svg fill="#000000" height="800px" width="800px" version="1.1" id="Layer_1" xmlns="http://www.w3.org/2000/svg" xmlns:xlink="http://www.w3.org/1999/xlink" 
	 viewBox="0 0 512.001 512.001" xml:space="preserve">
<g>
	<g>
		<g>
			<path d="M140.572,52.767c-31.479,17.328-51.821,54.802-51.821,95.473c0,9.073,1.004,18.126,2.984,26.908
				c1.119,4.956,5.519,8.324,10.396,8.324c0.778,0,1.567-0.085,2.356-0.265c5.746-1.294,9.355-7.004,8.059-12.75
				c-1.631-7.244-2.461-14.717-2.461-22.215c0-33.01,16.005-63.148,40.775-76.782c5.161-2.842,7.042-9.327,4.202-14.49
				C152.221,51.806,145.733,49.925,140.572,52.767z"/>
			<path d="M465.914,209.905c0-71.78-52.523-130.179-117.085-130.179c-16.202,0-32.181,3.742-46.887,10.877
				C281.702,37.412,234.329,0,179.254,0C105.825,0,46.087,66.501,46.087,148.24c0,69.332,42.988,127.693,100.848,143.81
				c-4.363,5.399-7.569,11.552-9.198,17.636c-3.819,14.259,1.104,27.328,12.851,34.108c5.869,3.39,11.629,5.109,17.118,5.109
				c0.183,0,0.365-0.013,0.548-0.017c-0.846,7.119-2.26,15.721-3.648,24.172c-6.702,40.817-15.884,96.719,5.41,133.604
				c1.978,3.423,5.561,5.336,9.248,5.336c1.81,0,3.644-0.461,5.323-1.432c5.102-2.944,6.85-9.469,3.904-14.571
				c-17.482-30.283-9.015-81.837-2.833-119.481c1.76-10.722,3.267-19.907,4.073-27.643c0.356,0.015,0.71,0.031,1.069,0.031h0.002
				c5.486,0,11.246-1.719,17.118-5.109c11.747-6.779,16.67-19.851,12.849-34.11c-1.629-6.081-4.835-12.236-9.196-17.634
				c12.853-3.579,24.97-9.242,36.048-16.648c15.365,29.324,40.389,50.606,69.317,59.732c-4.579,5.521-7.937,11.876-9.622,18.156
				c-3.821,14.261,1.102,27.332,12.851,34.117c5.869,3.388,11.625,5.104,17.113,5.104c0.612,0,1.219-0.027,1.821-0.068
				c0.315,4.759,0.754,10.101,1.235,15.94c2.33,28.262,5.519,66.967-1.148,89.98c-1.64,5.659,1.619,11.576,7.277,13.216
				c0.992,0.288,1.989,0.425,2.973,0.425c4.627,0,8.888-3.036,10.24-7.703c7.763-26.786,4.385-67.756,1.921-97.67
				c-0.409-4.944-0.806-9.773-1.11-14.123c5.454-0.021,11.176-1.736,17.007-5.1c11.747-6.782,16.672-19.853,12.851-34.114
				c-1.679-6.267-5.03-12.611-9.596-18.123C429.846,319.679,465.914,269.387,465.914,209.905z M197.254,325.317
				c-3.224,1.86-5.288,2.252-6.453,2.252c-0.964,0-2.054-0.229-3.484-1.88c-0.061-0.069-0.129-0.129-0.192-0.196
				c-0.153-0.166-0.306-0.33-0.467-0.485c-0.112-0.109-0.229-0.214-0.346-0.317c-0.153-0.135-0.306-0.265-0.467-0.389
				c-0.129-0.102-0.26-0.204-0.396-0.3c-0.16-0.115-0.325-0.221-0.49-0.327c-0.14-0.087-0.277-0.177-0.421-0.258
				c-0.179-0.102-0.365-0.194-0.55-0.288c-0.135-0.067-0.269-0.138-0.406-0.197c-0.225-0.102-0.457-0.188-0.689-0.273
				c-0.105-0.037-0.204-0.081-0.31-0.116c-0.698-0.232-1.421-0.389-2.164-0.47c-0.039-0.004-0.079-0.004-0.118-0.008
				c-0.325-0.031-0.654-0.052-0.983-0.054c-0.021,0-0.042-0.002-0.063-0.002c-0.002,0-0.002,0-0.002,0
				c-0.094,0-0.186,0.013-0.282,0.015c-0.25,0.006-0.502,0.017-0.754,0.042c-0.158,0.015-0.313,0.042-0.467,0.063
				c-0.156,0.023-0.313,0.035-0.468,0.065c-0.054,0.011-0.107,0.027-0.162,0.039c-0.16,0.031-0.317,0.073-0.475,0.114
				c-0.208,0.052-0.417,0.107-0.619,0.169c-0.138,0.044-0.273,0.094-0.409,0.144c-0.219,0.079-0.435,0.162-0.648,0.254
				c-0.116,0.052-0.231,0.109-0.348,0.164c-0.221,0.107-0.437,0.219-0.65,0.339c-0.105,0.061-0.208,0.121-0.313,0.186
				c-0.21,0.129-0.417,0.267-0.617,0.411c-0.1,0.073-0.198,0.144-0.295,0.219c-0.194,0.15-0.381,0.308-0.566,0.473
				c-0.092,0.081-0.186,0.162-0.275,0.247c-0.186,0.175-0.358,0.361-0.529,0.548c-0.061,0.067-0.127,0.123-0.186,0.192
				c-1.429,1.65-2.521,1.88-3.486,1.88c-1.165,0-3.229-0.392-6.453-2.252c-1.329-0.767-4.865-2.807-2.909-10.109
				c2.369-8.842,11.813-18.73,20.91-18.73c9.094,0,18.538,9.888,20.908,18.728C202.118,322.511,198.583,324.55,197.254,325.317z
				 M179.254,275.14c-61.664,0-111.832-56.928-111.832-126.9c0-69.977,50.169-126.906,111.832-126.906
				c61.666,0,111.832,56.93,111.832,126.906C291.086,218.213,240.919,275.14,179.254,275.14z M366.83,368.927
				c-3.219,1.858-5.283,2.248-6.448,2.248c-0.569,0-1.181-0.088-1.877-0.485c-1.696-2.75-4.606-4.704-8.07-5.032
				c-0.463-0.044-0.918-0.048-1.371-0.033c-0.079-0.002-0.156-0.013-0.236-0.013c-3.093,0-6.038,1.344-8.063,3.683
				c-1.432,1.652-2.521,1.88-3.488,1.88c-1.167,0-3.231-0.389-6.448-2.245c-1.331-0.769-4.867-2.811-2.909-10.117
				c2.371-8.84,11.815-18.728,20.908-18.728c9.099,0,18.543,9.889,20.912,18.728C371.695,366.119,368.16,368.161,366.83,368.927z
				 M348.83,318.75c-35.139,0-67.472-22.103-84.141-56.899c26.06-24.324,43.661-59.522,47.104-99.263
				c9.892-12.023,23.247-18.864,37.037-18.864c0.332,0,0.665,0.002,0.994,0.011c5.88,0.121,10.765-4.555,10.886-10.444
				c0.123-5.891-4.555-10.765-10.444-10.886c-0.477-0.011-0.958-0.015-1.436-0.015c-13.142,0-25.885,4.075-37.031,11.576
				c-0.667-7.732-1.862-15.295-3.559-22.639c12.634-6.73,26.522-10.267,40.59-10.267c52.798,0,95.75,48.828,95.75,108.844
				C444.58,269.923,401.629,318.75,348.83,318.75z"/>
			<path d="M179.254,42.669c-0.437,0-0.875,0.002-1.307,0.013c-5.889,0.142-10.549,5.03-10.407,10.919
				c0.14,5.802,4.886,10.411,10.659,10.411c0.085,0,0.173,0,0.26-0.002c0.262-0.009,0.531-0.006,0.794-0.006
				c5.893,0,10.668-4.776,10.668-10.667C189.921,47.446,185.145,42.669,179.254,42.669z"/>
			<path d="M386.905,134.671l-0.505-0.35c-4.825-3.381-11.478-2.21-14.857,2.615c-3.379,4.825-2.21,11.478,2.615,14.857l0.346,0.24
				c1.88,1.342,4.046,1.987,6.192,1.987c3.327,0,6.606-1.552,8.689-4.467C392.809,144.759,391.699,138.096,386.905,134.671z"/>
		</g>
	</g>
</g>
</svg>