<?xml version="1.0" encoding="iso-8859-1"?>
<!-- Uploaded to: SVG Repo, www.svgrepo.com, Generator: SVG Repo Mixer Tools -->
<!DOCTYPE svg PUBLIC "-//W3C//DTD SVG 1.1//EN" "http://www.w3.org/Graphics/SVG/1.1/DTD/svg11.dtd">
<svg fill="#000000" version="1.1" id="Capa_1" xmlns="http://www.w3.org/2000/svg" xmlns:xlink="http://www.w3.org/1999/xlink" 
	 width="800px" height="800px" viewBox="0 0 612.003 612.003"
	 xml:space="preserve">
<g>
	<g>
		<path d="M232.472,266.924c-5.724-2.258-11.663-3.407-17.641-3.407c-16.342,0-30.387,8.817-35.771,22.458
			c-3.824,9.691-2.865,20.825,2.63,30.543c4.999,8.831,13.294,15.886,23.364,19.86c5.724,2.265,11.663,3.406,17.641,3.406
			c16.342,0,30.387-8.816,35.771-22.457c3.825-9.691,2.872-20.826-2.63-30.543C250.837,277.947,242.536,270.898,232.472,266.924z
			 M230.964,306.467c-0.875,2.206-4.275,3.753-8.276,3.753c-2.212,0-4.562-0.463-6.787-1.344
			c-6.873-2.716-10.671-8.707-9.353-12.048c0.868-2.206,4.275-3.752,8.275-3.752c2.219,0,4.562,0.463,6.788,1.338
			c3.74,1.475,6.84,4,8.491,6.924C230.736,302.467,231.695,304.62,230.964,306.467z"/>
		<path d="M355.789,286.784c-5.502,9.718-6.455,20.845-2.631,30.543c5.385,13.641,19.43,22.457,35.771,22.457l0,0
			c5.979,0,11.91-1.148,17.641-3.406c10.07-3.975,18.365-11.029,23.364-19.86c5.496-9.718,6.455-20.852,2.631-30.543
			c-5.385-13.64-19.43-22.458-35.771-22.458c-5.979,0-11.917,1.148-17.641,3.407C369.09,270.898,360.788,277.947,355.789,286.784z
			 M381.522,301.344c1.651-2.917,4.744-5.443,8.49-6.925c2.226-0.875,4.568-1.338,6.788-1.338c4,0,7.4,1.541,8.275,3.753
			c1.318,3.341-2.48,9.333-9.353,12.047c-2.226,0.881-4.568,1.345-6.781,1.345l0,0c-4,0-7.4-1.54-8.275-3.753
			C379.93,304.62,380.889,302.467,381.522,301.344z"/>
		<path d="M611.995,125.875l-0.025-2.173l-0.666-2.069c-0.927-2.878-10.012-28.866-43.923-55.103
			c-19.54-15.122-43.512-27.261-71.249-36.098c-33.982-10.827-73.846-16.708-118.474-17.478c-2.029-0.033-6.239-0.111-17.262,6.52
			c-4.758,2.865-11.924,7.721-19.019,14.6c-8.49,8.236-14.58,17.19-18.098,26.484c-5.658-0.229-11.616-0.359-17.811-0.359
			c-5.815,0-11.415,0.117-16.76,0.32c-3.518-9.274-9.607-18.215-18.085-26.438c-7.094-6.892-14.253-11.748-19.018-14.606
			c-11.016-6.625-15.232-6.553-17.262-6.52c-44.627,0.777-84.491,6.657-118.474,17.478c-27.73,8.837-51.702,20.982-71.242,36.098
			C10.718,92.767,1.626,118.755,0.707,121.633l-0.672,2.069l-0.026,2.173c-0.581,47.16,31.138,93.027,46.213,112.13
			c-21.387,27.111-24.037,72.039-7.845,133.634c11.735,44.647,29.134,81.73,29.872,83.283l3.864,8.191l9.059,0.091
			c32.469,0.333,53.862,4.216,66.739,7.76c11.754,35.367,44.595,61.583,84.034,64.521v0.737c0,34.648,28.188,62.83,62.83,62.83
			h22.464c34.648,0,62.829-28.188,62.829-62.83v-0.835c38.956-3.329,71.314-29.382,82.964-64.429
			c12.877-3.544,34.271-7.428,66.739-7.76l9.059-0.092l3.863-8.19c0.771-1.639,19.044-40.581,30.759-86.71
			c15.089-59.442,12.322-102.941-8.19-129.542C580.107,219.979,612.583,173.59,611.995,125.875z M356.271,412.417v0.02
			c-0.215-0.02-0.424-0.039-0.633-0.065C355.887,412.391,356.096,412.404,356.271,412.417z M264.771,411.66
			c2.017-0.15,4.242-0.32,6.572-0.496c14.606-1.104,33.435-2.532,33.435-2.532c0.457-0.033,0.92-0.033,1.371,0
			c15.246,1.155,25.903,1.964,33.37,2.532c2.538,0.189,4.712,0.358,6.565,0.496c0.815,6.147-0.326,11.095-3.473,15.05
			c-6.311,7.936-20.838,12.87-37.912,12.87h-0.006c-7.727,0-15.409-1.084-21.642-3.042c-14.162-4.457-17.889-12.484-18.489-18.528
			C264.542,416.64,264.614,414.159,264.771,411.66z M351.161,536.223c0,18.705-15.22,33.924-33.924,33.924h-22.464
			c-18.705,0-33.924-15.219-33.924-33.924v-2.807c5.554-1.24,10.99-2.963,16.277-5.169c4.399,0.529,9.039,0.927,13.888,1.182v22.32
			h28.906v-22.32c4.849-0.261,9.489-0.652,13.888-1.182c5.626,2.35,11.421,4.145,17.348,5.397v2.578H351.161z M551.594,208.558
			c-22.478,24.807-30.688,46.325-36.124,60.572c-0.835,2.186-1.781,4.673-2.63,6.663c-0.992-0.496-2.238-1.162-3.772-2.062
			c-5.378-3.166-21.968-17.021-59.762-77.201c-21.433-34.127-39.067-66.341-39.243-66.667l-25.368,13.862
			c0.176,0.326,18.176,33.206,40.059,68.057c45.679,72.756,63.73,83.368,69.663,86.86c6.487,3.812,13.862,7.42,21.465,7.42
			c2.467,0,4.954-0.378,7.447-1.253c10.938-3.837,14.932-14.299,19.154-25.381c1.541-4.033,3.257-8.537,5.456-13.444
			c3.563,8.158,5.6,18.241,6.05,30.204c0.68,17.921-2.173,39.628-8.464,64.52c-7.988,31.595-19.573,60.298-25.375,73.781
			c-22.099,0.686-39.341,2.943-52.518,5.646c-0.418-18.45-6.305-36.137-17.132-51.271c-10.906-15.253-26.034-26.902-43.74-33.683
			l-5.169,13.496l-5.169,13.497c12.4,4.744,22.967,12.876,30.563,23.501c7.707,10.775,11.78,23.417,11.78,36.562
			c0,2.265-0.124,4.496-0.359,6.702c-1.207,11.192-5.397,21.55-11.787,30.315c-10.625,14.573-27.332,24.748-46.553,27.091
			c-2.78,0.34-5.605,0.509-8.478,0.509c-2.01,0-4.001-0.085-5.978-0.248c-4.941-0.411-9.771-1.344-14.456-2.786
			c-3.087-0.946-6.109-2.115-9.059-3.505l-3.936-1.854l-4.301,0.626c-4.321,0.627-8.98,1.091-13.94,1.397v-8.374v-24.644
			c6.383-0.874,12.387-2.311,17.921-4.262c4.823-1.703,9.287-3.798,13.32-6.266c5.567-3.399,10.318-7.505,14.084-12.243
			c0.124-0.156,0.248-0.313,0.365-0.477c6.351-8.203,12.714-22.111,8.015-42.474l-0.032-0.163c-0.177-0.815-0.594-2.722-1.097-4.562
			c-0.379-1.384-0.737-2.493-1.129-3.479c-3.407-8.556-10.736-9.763-12.896-9.926h-0.013l-0.535-0.04l0,0
			c-1.971-0.149-9.078-0.685-17.314-1.312c-14.397-1.09-32.26-2.447-32.26-2.447c-1.907-0.144-3.845-0.144-5.744,0
			c0,0-17.909,1.357-32.345,2.447c-9.731,0.737-17.882,1.352-17.902,1.357c-4.125,0.313-7.91,2.265-10.651,5.489
			c-3.309,3.89-4.888,9.202-5.646,18.945c-0.352,4.562-0.489,10.045-0.3,12.225c0.842,9.705,4.562,18.502,10.638,25.818
			c3.896,4.686,8.752,8.771,14.456,12.087c3.342,1.944,6.97,3.629,10.86,5.019c0.881,0.313,1.769,0.62,2.676,0.907
			c5.163,1.625,10.775,2.8,16.629,3.524v24.48v8.373c-4.96-0.307-9.626-0.764-13.947-1.396l-4.301-0.627l-3.936,1.854
			c-2.604,1.228-5.273,2.278-7.988,3.166c-4.68,1.527-9.509,2.538-14.456,3.028c-2.323,0.229-4.673,0.353-7.048,0.353
			c-2.506,0-4.973-0.138-7.408-0.398c-19.664-2.082-36.796-12.367-47.617-27.202c-6.389-8.765-10.585-19.122-11.787-30.315
			c-0.235-2.205-0.359-4.438-0.359-6.702c0-13.138,4.072-25.779,11.78-36.561c7.597-10.625,18.169-18.757,30.563-23.502
			l-5.169-13.497l-5.169-13.496c-17.712,6.781-32.834,18.431-43.74,33.683c-9.339,13.06-15.004,28.018-16.655,43.727
			c-2.571-19.266-15.076-37.683-27.202-51.787c-12.864-14.965-32.43-26.308-52.348-24.917c-4.986-20.892-7.466-39.466-7.375-55.318
			c0.085-14.508,2.33-26.471,6.67-35.784c2.467,5.378,4.34,10.279,5.998,14.639c4.229,11.082,8.216,21.544,19.155,25.381
			c2.493,0.875,4.979,1.252,7.447,1.252c7.603,0,14.978-3.602,21.465-7.42c5.932-3.492,23.978-14.104,69.663-86.86
			c21.883-34.851,39.883-67.731,40.059-68.057l-25.368-13.862c-0.176,0.32-17.817,32.541-39.243,66.667
			c-37.794,60.18-54.385,74.035-59.762,77.201c-1.534,0.9-2.78,1.573-3.772,2.062c-0.848-1.991-1.794-4.478-2.63-6.664
			c-1.834-4.816-3.994-10.462-6.905-16.786c0.542-0.594,1.058-1.207,1.56-1.84c4-5.032,7.897-10.168,10.847-15.905
			c3.067-5.965,5.006-12.504,4.869-19.253c-0.144-6.938-3.015-13.333-6.715-19.063c-6.585-10.181-14.071-20.637-25.486-25.688
			c-12.113-5.358-25.988-7.12-39.106-8.498c-3.857-10.788-6.448-22.131-6.664-33.389c3.537-8.269,14.345-25.081,35.367-40.803
			c16.962-12.688,37.912-22.96,62.268-30.518c30.296-9.404,65.923-14.606,105.924-15.474c5.09,2.35,17.464,10.247,24.911,20.865
			c-15.963,1.709-25.917,3.667-26.641,3.818l5.671,28.344c0.293-0.059,29.59-5.828,69.049-5.828c39.257,0,68.769,5.769,69.062,5.828
			l5.658-28.351c-0.711-0.144-10.266-2.023-25.648-3.707c7.44-10.677,19.88-18.613,24.989-20.976
			c40.001,0.868,75.628,6.069,105.924,15.474c10.54,3.27,20.44,7.055,29.656,11.317c-4.438,5.906-7.428,12.961-8.576,20.134
			c-2.532,15.8,2.931,30.576,13.379,42.421c10.403,11.8,25.806,18.672,41.182,20.767c6.103,0.835,12.159,1.097,18.235,0.822
			C573.353,174.399,561.351,194.579,551.594,208.558z"/>
		<path d="M195.957,435.175c-8.869,0-11.539,9.587-8.034,15.389c1.521,2.513,4.19,4.32,8.034,4.32c2.375,0,4.301-0.685,5.789-1.808
			C208.22,448.208,206.294,435.175,195.957,435.175z"/>
		<path d="M217.637,476.564c-6.618,0-9.783,5.346-9.509,10.469c0.254,4.719,3.413,9.241,9.509,9.241
			c3.759,0,6.402-1.736,7.936-4.164C229.222,486.322,226.585,476.564,217.637,476.564z"/>
		<path d="M229.463,446.015c-8.732,0-11.467,9.3-8.197,15.122c1.488,2.656,4.223,4.581,8.197,4.581c0.888,0,1.71-0.104,2.48-0.287
			c1.677-0.397,3.061-1.188,4.138-2.238c4.96-4.836,3.576-15.089-4.138-16.903C231.173,446.119,230.351,446.015,229.463,446.015z"/>
		<path d="M409.521,452.991c1.501,1.169,3.459,1.893,5.894,1.893c3.863,0,6.546-1.827,8.06-4.366
			c3.466-5.802,0.783-15.343-8.06-15.343C405.135,435.175,403.17,448.064,409.521,452.991z"/>
		<path d="M385.797,492.104c1.534,2.434,4.177,4.163,7.937,4.163c6.22,0,9.392-4.725,9.521-9.541
			c0.138-5.032-3.028-10.168-9.521-10.168C384.785,476.564,382.148,486.322,385.797,492.104z"/>
		<path d="M390.287,460.777c2.963-5.841,0.176-14.763-8.38-14.763c-0.652,0-1.26,0.065-1.841,0.163
			c-8.275,1.391-9.867,12.061-4.777,17.027c1.214,1.182,2.807,2.03,4.777,2.362c0.581,0.099,1.194,0.164,1.841,0.164
			C386.064,465.725,388.852,463.616,390.287,460.777z"/>
		<path d="M326.139,201.516c-1.521-10.514-11.231-17.503-20.584-20.604c-6.99-2.317-14.769-2.037-22.046-2.304
			c-6.788-0.248-13.138-1.546-19.958-3.837c-13.333-4.49-23.814,24.905-22.751,33.898c1.789,15.05,13.353,26.68,21.42,38.715
			c7.962,11.878,14.874,23.501,30.596,25.349c10.011,1.175,20.03-5.202,23.626-14.384c1.794-4.588,1.572-9.561,1.246-14.384
			c0-0.006,0-0.013,0-0.02C316.663,228.888,328.417,217.277,326.139,201.516z"/>
	</g>
</g>
</svg>