<?xml version="1.0"?><svg xmlns="http://www.w3.org/2000/svg"  viewBox="0 0 64 64" width="128px" height="128px">    <path d="M 12.203125 3 C 7.635125 3 1 11.233 1 21 C 1 29.508646 5.9085236 38.027004 10.25 42.949219 C 10.579852 43.752208 10.928232 44.434249 11.261719 44.990234 C 11.090625 46.14828 11 47.320707 11 48.5 C 11 56.706 21.565 61 32 61 C 42.436 61 53 56.706 53 48.5 C 53 47.389021 52.90763 46.277015 52.738281 45.171875 C 53.136096 44.529717 53.571541 43.703883 53.964844 42.695312 C 58.252407 37.738811 63 29.369901 63 21 C 63 11.233 56.364875 3 51.796875 3 C 50.259875 3 48.805797 3.9070469 47.591797 5.6230469 C 45.430797 8.6780469 44.051953 16.519031 45.751953 21.332031 C 45.905953 21.771031 46.110797 22.274891 46.341797 22.837891 C 47.4061 25.441255 48.982504 29.337627 48.496094 34.509766 C 45.29732 29.687714 40.739647 25.927095 35.908203 24.560547 L 34.949219 21.683594 C 34.774219 21.160594 34.211594 20.874781 33.683594 21.050781 C 33.159594 21.225781 32.877734 21.792406 33.052734 22.316406 L 33.650391 24.109375 C 33.625029 24.106268 33.599585 24.10453 33.574219 24.101562 L 30.798828 20.400391 C 30.467828 19.958391 29.841391 19.866219 29.400391 20.199219 C 28.958391 20.530219 28.867219 21.157609 29.199219 21.599609 L 30.775391 23.699219 L 26.513672 21.142578 C 26.038672 20.858578 25.426578 21.011375 25.142578 21.484375 C 24.858578 21.958375 25.010375 22.573422 25.484375 22.857422 L 28.203125 24.488281 C 23.232684 25.747364 18.666573 29.377949 15.482422 34.175781 C 15.092499 29.171005 16.617637 25.384047 17.658203 22.837891 C 17.7429 22.630568 17.798332 22.473932 17.875 22.283203 C 17.900055 22.235348 17.924103 22.196765 17.949219 22.148438 C 17.981953 22.085289 17.987594 22.017114 18.005859 21.951172 C 18.084739 21.749412 18.184329 21.512906 18.248047 21.332031 C 19.948047 16.520031 18.569203 8.6770469 16.408203 5.6230469 C 15.194203 3.9060469 13.740125 3 12.203125 3 z M 12.203125 5 C 13.051125 5 13.964391 5.6303437 14.775391 6.7773438 C 16.672391 9.4593438 17.785281 16.640969 16.363281 20.667969 C 16.284751 20.890111 16.166599 21.171764 16.064453 21.427734 C 14.697119 24.032084 13.409876 25.938331 12.373047 27.46875 C 10.913047 29.62375 9.7626094 31.325359 9.3496094 33.568359 C 9.0348608 35.28104 8.989864 36.846396 9.1113281 38.257812 C 5.9107707 33.605259 3 27.248588 3 21 C 3 12.315 8.958125 5 12.203125 5 z M 51.796875 5 C 55.041875 5 61 12.315 61 21 C 61 27.166458 58.161383 33.434512 55.009766 38.072266 C 55.111841 36.708682 55.061296 35.20673 54.759766 33.568359 C 54.347766 31.325359 53.194375 29.62375 51.734375 27.46875 C 50.669375 25.89675 49.344547 23.939563 47.935547 21.226562 C 47.895835 21.150552 47.835908 21.094275 47.78125 21.033203 C 47.737566 20.918502 47.674518 20.774895 47.636719 20.667969 C 46.213719 16.640969 47.326609 9.4593438 49.224609 6.7773438 C 50.034609 5.6303438 50.948875 5 51.796875 5 z M 54.679688 9.6660156 C 54.424312 9.6456406 54.162125 9.7238438 53.953125 9.9023438 L 52.429688 11.197266 C 52.008688 11.555266 51.959406 12.186422 52.316406 12.607422 C 52.514406 12.839422 52.796125 12.958984 53.078125 12.958984 C 53.308125 12.958984 53.537609 12.880703 53.724609 12.720703 L 55.248047 11.425781 C 55.669047 11.067781 55.718328 10.436625 55.361328 10.015625 C 55.182828 9.804625 54.935063 9.6863906 54.679688 9.6660156 z M 9.3203125 9.6679688 C 9.0650625 9.6884688 8.8176719 9.805125 8.6386719 10.015625 C 8.2806719 10.436625 8.3309531 11.067781 8.7519531 11.425781 L 10.275391 12.720703 C 10.462391 12.880703 10.692875 12.958984 10.921875 12.958984 C 11.203875 12.958984 11.485594 12.840422 11.683594 12.607422 C 12.041594 12.186422 11.991312 11.555266 11.570312 11.197266 L 10.046875 9.9023438 C 9.837875 9.7238438 9.5755625 9.6474687 9.3203125 9.6679688 z M 57.113281 14.041016 C 56.983641 14.030625 56.85025 14.046094 56.71875 14.089844 L 54.820312 14.71875 C 54.296312 14.89175 54.011547 15.456469 54.185547 15.980469 C 54.323547 16.401469 54.714766 16.667969 55.134766 16.667969 C 55.237766 16.667969 55.344219 16.651234 55.449219 16.615234 L 57.347656 15.988281 C 57.871656 15.815281 58.156422 15.248609 57.982422 14.724609 C 57.852672 14.331609 57.502203 14.072188 57.113281 14.041016 z M 6.8847656 14.042969 C 6.4954219 14.074141 6.1473281 14.333563 6.0175781 14.726562 C 5.8435781 15.250563 6.1293438 15.815281 6.6523438 15.988281 L 8.5507812 16.617188 C 8.6547812 16.651188 8.7612344 16.667969 8.8652344 16.667969 C 9.2852344 16.667969 9.6754531 16.402422 9.8144531 15.982422 C 9.9884531 15.458422 9.7026875 14.89175 9.1796875 14.71875 L 7.28125 14.091797 C 7.149 14.048047 7.0145469 14.032578 6.8847656 14.042969 z M 6.2285156 18.925781 C 5.6565156 18.887781 5.2247031 19.365969 5.2207031 19.917969 C 5.2167031 20.469969 5.6618438 20.921781 6.2148438 20.925781 L 8.2148438 20.939453 L 8.2207031 20.939453 C 8.7697031 20.939453 9.2167031 20.495312 9.2207031 19.945312 C 9.2247031 19.393312 8.7815156 18.943453 8.2285156 18.939453 L 6.2285156 18.925781 z M 57.771484 18.925781 L 55.771484 18.939453 C 55.218484 18.943453 54.775297 19.393313 54.779297 19.945312 C 54.783297 20.495312 55.230297 20.939453 55.779297 20.939453 L 55.785156 20.939453 L 57.785156 20.925781 C 58.338156 20.921781 58.783297 20.469969 58.779297 19.917969 C 58.775297 19.367969 58.328297 18.925781 57.779297 18.925781 L 57.771484 18.925781 z M 8.90625 23.349609 C 8.7787031 23.325609 8.6442656 23.325969 8.5097656 23.355469 L 6.5546875 23.779297 C 6.0146875 23.896297 5.6720625 24.42875 5.7890625 24.96875 C 5.8910625 25.43775 6.305625 25.755859 6.765625 25.755859 C 6.835625 25.755859 6.9075156 25.748422 6.9785156 25.732422 L 8.9316406 25.308594 C 9.4716406 25.191594 9.8142656 24.659141 9.6972656 24.119141 C 9.6095156 23.714141 9.2888906 23.421609 8.90625 23.349609 z M 55.09375 23.349609 C 54.711109 23.422125 54.388531 23.714891 54.300781 24.119141 C 54.183781 24.659141 54.526406 25.191594 55.066406 25.308594 L 57.021484 25.732422 C 57.092484 25.748422 57.164375 25.755859 57.234375 25.755859 C 57.694375 25.755859 58.109938 25.43675 58.210938 24.96875 C 58.327938 24.42875 57.983359 23.896297 57.443359 23.779297 L 55.490234 23.355469 C 55.355734 23.326469 55.221297 23.325437 55.09375 23.349609 z M 32 26 C 41.21 26 50.951172 37.565 50.951172 48.5 C 50.951172 55.32 41.188 59 32 59 C 22.813 59 13.048828 55.32 13.048828 48.5 C 13.048828 47.461981 13.125462 46.42862 13.267578 45.408203 C 13.377873 45.201749 13.423634 44.967645 13.375 44.736328 C 15.079075 34.67128 23.326106 26 32 26 z M 31 28 C 30.387 28 29.74575 28.07375 29.09375 28.21875 C 28.55475 28.33875 28.216938 28.873109 28.335938 29.412109 C 28.440938 29.878109 28.852547 30.195312 29.310547 30.195312 C 29.382547 30.195312 29.456297 30.187875 29.529297 30.171875 C 30.038297 30.058875 30.533 30 31 30 C 31.553 30 32 29.552 32 29 C 32 28.448 31.553 28 31 28 z M 50.263672 28.871094 C 51.583436 30.821201 52.472085 32.187204 52.792969 33.929688 C 53.383223 37.136612 52.918768 39.761404 52.214844 41.695312 C 52.146565 41.77242 52.077608 41.856617 52.009766 41.931641 C 51.52927 40.310494 50.881864 38.731398 50.103516 37.220703 C 50.748241 34.057109 50.662112 31.262796 50.263672 28.871094 z M 13.689453 29.101562 C 13.332454 31.377814 13.269848 34.013133 13.841797 36.974609 C 13.062573 38.517255 12.417838 40.138133 11.945312 41.818359 C 11.214667 39.873274 10.713316 37.211112 11.316406 33.929688 C 11.624048 32.259111 12.460357 30.925178 13.689453 29.101562 z M 26.167969 29.382812 C 26.038812 29.396062 25.909813 29.435453 25.789062 29.501953 C 24.782063 30.055953 23.806328 30.745531 23.111328 31.394531 C 22.708328 31.771531 22.6855 32.404594 23.0625 32.808594 C 23.2585 33.019594 23.524969 33.126953 23.792969 33.126953 C 24.037969 33.126953 24.282563 33.037422 24.476562 32.857422 C 25.046563 32.323422 25.897953 31.725859 26.751953 31.255859 C 27.236953 30.989859 27.413484 30.380484 27.146484 29.896484 C 26.947734 29.533484 26.555438 29.343063 26.167969 29.382812 z M 20.5 37 C 18.505 37 17 39.364 17 42.5 C 17 45.636 18.505 48 20.5 48 C 22.495 48 24 45.636 24 42.5 C 24 39.364 22.495 37 20.5 37 z M 43.5 37 C 41.505 37 40 39.364 40 42.5 C 40 45.636 41.505 48 43.5 48 C 45.495 48 47 45.636 47 42.5 C 47 39.364 45.495 37 43.5 37 z M 32.009766 37.251953 C 31.049766 37.250953 30.091641 37.382031 29.056641 37.644531 C 28.521641 37.781531 28.195031 38.324375 28.332031 38.859375 C 28.468031 39.395375 29.011828 39.716984 29.548828 39.583984 C 31.295828 39.138984 32.723656 39.142844 34.472656 39.589844 C 34.555656 39.610844 34.638703 39.619141 34.720703 39.619141 C 35.165703 39.619141 35.573453 39.318188 35.689453 38.867188 C 35.825453 38.332188 35.50375 37.787391 34.96875 37.650391 C 33.93175 37.384891 32.969766 37.252953 32.009766 37.251953 z M 20.5 38 C 21.328 38 22 38.672 22 39.5 C 22 40.328 21.328 41 20.5 41 C 19.672 41 19 40.328 19 39.5 C 19 38.672 19.672 38 20.5 38 z M 43.5 38 C 44.328 38 45 38.672 45 39.5 C 45 40.328 44.328 41 43.5 41 C 42.672 41 42 40.328 42 39.5 C 42 38.672 42.672 38 43.5 38 z M 32 41 C 30.516 41 26 40.999219 26 45.199219 C 26 48.563219 29.584 51 32 51 C 34.416 51 38 48.563219 38 45.199219 C 38 40.999219 33.484 41 32 41 z M 32.009766 42.251953 C 32.969766 42.253078 33.93175 42.384891 34.96875 42.650391 C 35.50375 42.787391 35.825453 43.332188 35.689453 43.867188 C 35.573453 44.318188 35.165703 44.619141 34.720703 44.619141 C 34.638703 44.619141 34.555656 44.610844 34.472656 44.589844 C 32.723656 44.142844 31.295828 44.138984 29.548828 44.583984 C 29.011828 44.716984 28.468031 44.395375 28.332031 43.859375 C 28.195031 43.324375 28.521641 42.781531 29.056641 42.644531 C 30.091641 42.381531 31.049766 42.250828 32.009766 42.251953 z M 45.841797 52.011719 C 45.713547 52.032438 45.587703 52.078844 45.470703 52.152344 C 41.764703 54.475344 39.486984 54.135203 36.333984 53.658203 C 34.942984 53.449203 33.365531 53.210938 31.519531 53.210938 C 29.667531 53.210938 28.186859 53.456828 26.880859 53.673828 C 24.058859 54.138828 22.19625 54.450344 18.53125 52.152344 C 18.06325 51.860344 17.447344 52.00075 17.152344 52.46875 C 16.859344 52.93775 17.00075 53.553656 17.46875 53.847656 C 20.15175 55.528656 22.140891 56.001953 23.962891 56.001953 C 25.064891 56.001953 26.107031 55.828484 27.207031 55.646484 C 28.497031 55.432484 29.831531 55.210938 31.519531 55.210938 C 33.216531 55.210938 34.650109 55.426719 36.037109 55.636719 C 39.207109 56.112719 42.198203 56.562656 46.533203 53.847656 C 47.000203 53.553656 47.142609 52.93775 46.849609 52.46875 C 46.629109 52.11775 46.226547 51.949562 45.841797 52.011719 z"/></svg>