<?xml version="1.0" encoding="iso-8859-1"?>
<!-- Uploaded to: SVG Repo, www.svgrepo.com, Generator: SVG Repo Mixer Tools -->
<svg fill="#000000" height="800px" width="800px" version="1.1" id="Layer_1" xmlns="http://www.w3.org/2000/svg" xmlns:xlink="http://www.w3.org/1999/xlink" 
	 viewBox="0 0 511.999 511.999" xml:space="preserve">
<g>
	<g>
		<g>
			<path d="M503.41,220.266L310.492,27.35c-14.504-14.504-33.857-22.492-54.493-22.492c-20.637,0-39.988,7.988-54.492,22.493
				L8.592,220.265C3.052,225.804,0,233.19,0,241.061c0,7.871,3.052,15.256,8.573,20.777l0.535,0.539
				c2.002,2.012,4.723,3.143,7.562,3.143h36.161v175.122c0,36.668,29.833,66.5,66.504,66.5h273.327
				c36.67,0,66.503-29.832,66.503-66.5V265.518h36.163c2.839,0,5.56-1.131,7.562-3.143l0.517-0.519
				c5.538-5.538,8.59-12.924,8.59-20.795C512,233.19,508.948,225.805,503.41,220.266z M490.05,244.184h-41.551
				c-5.892,0-10.667,4.776-10.667,10.667v185.79c0,24.905-20.262,45.165-45.168,45.165H119.336
				c-24.906,0-45.169-20.261-45.169-45.165v-185.79c0-5.892-4.776-10.667-10.667-10.667H21.948
				c-0.402-0.973-0.613-2.029-0.613-3.123c0-2.171,0.831-4.199,2.343-5.709L216.594,42.436
				c10.474-10.475,24.47-16.243,39.406-16.243c14.936,0,28.933,5.769,39.408,16.244l192.915,192.917
				c1.51,1.509,2.341,3.537,2.341,5.709C490.665,242.154,490.454,243.21,490.05,244.184z"/>
			<path d="M188.496,126.451c2.73,0,5.46-1.042,7.542-3.124l50.725-50.722c4.166-4.166,4.166-10.92,0.001-15.086
				c-4.166-4.166-10.921-4.166-15.087,0l-50.725,50.722c-4.166,4.166-4.166,10.92-0.001,15.086
				C183.035,125.41,185.765,126.451,188.496,126.451z"/>
			<path d="M165.657,149.29c2.702,0,5.406-1.021,7.484-3.067l0.169-0.166c4.199-4.134,4.25-10.887,0.116-15.086
				c-4.131-4.198-10.886-4.249-15.085-0.116l-0.17,0.166c-4.199,4.132-4.25,10.887-0.116,15.086
				C160.143,148.228,162.899,149.29,165.657,149.29z"/>
			<path d="M405.834,350.355c-5.891,0-10.667,4.776-10.667,10.667v0.445c0,5.892,4.777,10.667,10.667,10.667
				c5.892,0,10.667-4.776,10.667-10.667v-0.445C416.501,355.131,411.726,350.355,405.834,350.355z"/>
			<path d="M405.834,381.112c-5.891,0-10.667,4.776-10.667,10.667v48.861c0,5.892,4.777,10.667,10.667,10.667
				c5.892,0,10.667-4.776,10.667-10.667v-48.861C416.501,385.888,411.726,381.112,405.834,381.112z"/>
			<path d="M301.387,218.54c-11.372,0-27.888,3.442-45.387,18.623c-17.5-15.18-34.016-18.623-45.388-18.623
				c-21.495,0-41.712,12.453-52.763,32.5c-11.963,21.703-11.061,47.403,2.416,68.748c15.806,25.042,41.614,44.143,89.996,75.02
				c1.751,1.117,3.744,1.675,5.739,1.675c1.994,0,3.987-0.558,5.738-1.675c48.38-30.873,74.185-49.974,89.997-75.019
				c13.477-21.348,14.379-47.05,2.417-68.752C343.101,230.992,322.882,218.54,301.387,218.54z M333.693,308.4
				c-13.063,20.693-35.731,37.767-77.694,64.747c-41.967-26.982-64.635-44.057-77.695-64.748
				c-9.265-14.675-9.928-32.267-1.772-47.06c7.299-13.24,20.357-21.466,34.079-21.466c12.675,0,25.682,6.705,37.619,19.39
				c2.016,2.143,4.827,3.357,7.769,3.357c2.942,0,5.753-1.215,7.769-3.357c11.935-12.686,24.943-19.39,37.618-19.39
				c13.722,0,26.781,8.224,34.081,21.464C343.622,276.129,342.959,293.723,333.693,308.4z"/>
		</g>
	</g>
</g>
</svg>