<?xml version="1.0" encoding="iso-8859-1"?>
<!-- Uploaded to: SVG Repo, www.svgrepo.com, Generator: SVG Repo Mixer Tools -->
<svg fill="#000000" height="800px" width="800px" version="1.1" id="Layer_1" xmlns="http://www.w3.org/2000/svg" xmlns:xlink="http://www.w3.org/1999/xlink" 
	 viewBox="0 0 512.001 512.001" xml:space="preserve">
<g>
	<g>
		<g>
			<path d="M440.075,277.626V67.047c0-0.008,0-0.015,0-0.023v-0.031h-0.001c0-1.382-0.252-2.776-0.776-4.114
				c-1.693-4.325-5.863-7.17-10.508-7.17H11.284c-4.644,0-8.814,2.845-10.508,7.17C0.253,64.219,0,65.612,0.001,66.995H0v0.03
				c0,0.008,0,0.015,0,0.023v298.919c0,0.008,0,0.015,0,0.015v0.038h0.001c0,1.382,0.252,2.776,0.776,4.114
				c1.693,4.325,5.863,7.17,10.508,7.17h320.903c5.573,44.467,43.589,78.988,89.542,78.988c49.776,0,90.272-40.496,90.272-90.272
				C512,322.528,481.084,286.126,440.075,277.626z M399.971,78.279l-21.26,19.662H236.83c-6.232,0-11.284,5.053-11.284,11.284
				c0,6.231,5.052,11.284,11.284,11.284h117.476L220.037,244.682L40.104,78.279H399.971z M417.507,92.8v183.055
				c-18.727,0.867-35.98,7.463-50.044,18.077l-83.719-77.425L417.507,92.8z M22.568,92.8l133.764,123.707L22.568,340.213V92.8z
				 M332.188,354.735H40.104l132.847-122.858l39.424,36.461c2.162,2,4.912,2.999,7.662,2.999c2.75,0,5.5-1,7.662-2.999
				l39.425-36.461l84.14,77.813C341.109,322.369,334.307,337.83,332.188,354.735z M421.728,433.724
				c-37.332,0-67.704-30.372-67.704-67.704s30.372-67.704,67.704-67.704s67.704,30.372,67.704,67.704
				S459.06,433.724,421.728,433.724z"/>
			<path d="M431.488,324.021c-4.323-1.694-9.242-0.566-12.397,2.84l-23.16,25.013c-4.234,4.572-3.96,11.712,0.613,15.947
				c4.572,4.233,11.712,3.958,15.945-0.614l3.597-3.884v38.908c0,6.231,5.052,11.284,11.284,11.284
				c6.232,0,11.284-5.053,11.284-11.284v-67.704C438.654,329.884,435.811,325.715,431.488,324.021z"/>
			<path d="M187.933,97.94h-3.761c-6.232,0-11.284,5.053-11.284,11.284s5.052,11.284,11.284,11.284h3.761
				c6.232,0,11.284-5.053,11.284-11.284S194.166,97.94,187.933,97.94z"/>
		</g>
	</g>
</g>
</svg>