<?xml version="1.0" standalone="no"?>
<!DOCTYPE svg PUBLIC "-//W3C//DTD SVG 20010904//EN"
 "http://www.w3.org/TR/2001/REC-SVG-20010904/DTD/svg10.dtd">
<svg version="1.0" xmlns="http://www.w3.org/2000/svg"
 width="442.000000pt" height="414.000000pt" viewBox="0 0 442.000000 414.000000"
 preserveAspectRatio="xMidYMid meet">

<g transform="translate(0.000000,414.000000) scale(0.100000,-0.100000)"
fill="#000000" stroke="none">
<path d="M1515 3207 c-24 -24 -35 -46 -40 -78 -3 -24 -5 -278 -3 -564 3 -582
1 -565 75 -600 35 -17 72 -18 585 -12 593 7 591 7 616 62 9 19 12 174 12 591
l0 566 -34 34 -34 34 -572 0 -572 0 -33 -33z m1186 -26 l29 -29 0 -546 c0
-378 -3 -553 -11 -569 -6 -14 -22 -30 -36 -36 -16 -8 -191 -11 -569 -11 l-546
0 -29 29 -29 29 0 552 0 552 29 29 29 29 552 0 552 0 29 -29z"/>
<path d="M1577 3142 c-22 -25 -21 -75 1 -95 25 -22 75 -21 95 1 22 25 21 75
-1 95 -25 22 -75 21 -95 -1z m73 -31 c7 -15 6 -24 -6 -36 -19 -18 -33 -16 -48
7 -7 12 -6 21 3 32 18 22 38 20 51 -3z"/>
<path d="M2567 3142 c-22 -25 -21 -75 1 -95 25 -22 75 -21 95 1 22 25 21 75
-1 95 -25 22 -75 21 -95 -1z m77 -34 c8 -14 7 -21 -5 -33 -28 -29 -73 11 -48
42 15 17 38 13 53 -9z"/>
<path d="M1980 3060 l0 -60 -30 0 c-28 0 -30 -2 -30 -40 l0 -40 -43 0 c-56 0
-77 -22 -77 -78 l0 -42 -40 0 c-38 0 -40 -2 -40 -30 l0 -30 -60 0 c-53 0 -60
-2 -60 -20 0 -18 7 -20 60 -20 53 0 60 -2 60 -20 0 -18 -7 -20 -60 -20 -53 0
-60 -2 -60 -20 0 -18 7 -20 60 -20 53 0 60 -2 60 -20 0 -18 -7 -20 -60 -20
-53 0 -60 -2 -60 -20 0 -18 7 -20 60 -20 53 0 60 -2 60 -20 0 -18 -7 -20 -60
-20 -53 0 -60 -2 -60 -20 0 -18 7 -20 60 -20 l60 0 0 -30 c0 -28 2 -30 40 -30
l40 0 0 -44 c0 -57 19 -76 76 -76 l44 0 0 -40 c0 -38 2 -40 30 -40 l30 0 0
-65 c0 -58 2 -65 20 -65 18 0 20 7 20 65 0 58 2 65 20 65 18 0 20 -7 20 -65 0
-58 2 -65 20 -65 18 0 20 7 20 65 0 58 2 65 20 65 18 0 20 -7 20 -65 0 -58 2
-65 20 -65 18 0 20 7 20 65 0 58 2 65 20 65 18 0 20 -7 20 -64 0 -59 2 -65 20
-63 18 1 20 8 20 64 l0 63 30 0 c28 0 30 2 30 40 l0 40 44 0 c57 0 76 19 76
76 l0 44 40 0 c38 0 40 2 40 30 l0 30 60 0 c46 0 60 3 60 15 0 10 -15 15 -57
17 -51 3 -58 6 -61 26 -3 21 0 22 57 22 54 0 61 2 61 20 0 18 -7 20 -60 20
-53 0 -60 2 -60 20 0 18 7 20 60 20 53 0 60 2 60 20 0 18 -7 20 -60 20 -53 0
-60 2 -60 20 0 18 7 20 60 20 53 0 60 2 60 20 0 18 -7 20 -60 20 l-60 0 0 30
c0 28 -2 30 -40 30 l-40 0 0 43 c0 56 -22 77 -78 77 l-42 0 0 40 c0 38 -2 40
-30 40 l-30 0 0 60 c0 53 -2 60 -20 60 -18 0 -20 -7 -20 -60 0 -53 -2 -60 -20
-60 -18 0 -20 7 -20 60 0 53 -2 60 -20 60 -18 0 -20 -7 -20 -60 0 -53 -2 -60
-20 -60 -18 0 -20 7 -20 60 0 53 -2 60 -20 60 -18 0 -20 -7 -20 -60 0 -53 -2
-60 -20 -60 -18 0 -20 7 -20 60 0 53 -2 60 -20 60 -18 0 -20 -7 -20 -60z m305
-115 c0 -19 -8 -20 -159 -23 -162 -3 -182 1 -169 35 4 11 38 13 167 11 153 -3
161 -4 161 -23z m113 -67 c19 -19 17 -541 -2 -557 -9 -8 -92 -11 -282 -9
l-269 3 -3 279 c-2 217 1 281 10 288 22 13 532 10 546 -4z m-598 -278 l0 -160
-25 0 -25 0 0 160 0 160 25 0 25 0 0 -160z m688 -2 c-3 -155 -4 -163 -23 -163
-19 0 -20 8 -23 163 l-2 162 25 0 25 0 -2 -162z m-203 -343 c0 -19 -8 -20
-162 -23 l-163 -2 0 25 0 25 163 -2 c154 -3 162 -4 162 -23z"/>
<path d="M1945 2770 c-8 -13 4 -32 16 -25 12 8 12 35 0 35 -6 0 -13 -4 -16
-10z"/>
<path d="M2025 2770 c-11 -17 5 -32 21 -19 7 6 11 15 8 20 -7 12 -21 11 -29
-1z"/>
<path d="M2107 2774 c-13 -13 -7 -24 14 -24 11 0 19 5 17 12 -5 14 -22 21 -31
12z"/>
<path d="M2186 2771 c-3 -5 1 -14 8 -20 16 -13 32 2 21 19 -8 12 -22 13 -29 1z"/>
<path d="M2272 2766 c1 -10 8 -17 13 -17 15 1 12 24 -3 29 -9 3 -13 -2 -10
-12z"/>
<path d="M1985 2690 c-7 -12 2 -30 16 -30 5 0 9 9 9 20 0 21 -15 27 -25 10z"/>
<path d="M2064 2689 c-10 -17 13 -36 27 -22 12 12 4 33 -11 33 -5 0 -12 -5
-16 -11z"/>
<path d="M2144 2689 c-10 -17 13 -36 27 -22 12 12 4 33 -11 33 -5 0 -12 -5
-16 -11z"/>
<path d="M2230 2680 c0 -13 5 -20 13 -17 6 2 12 10 12 17 0 7 -6 15 -12 18 -8
2 -13 -5 -13 -18z"/>
<path d="M1945 2610 c-7 -12 2 -30 16 -30 12 0 12 27 0 35 -5 3 -12 1 -16 -5z"/>
<path d="M2024 2609 c-8 -14 11 -33 25 -25 11 7 4 36 -9 36 -5 0 -12 -5 -16
-11z"/>
<path d="M2104 2609 c-10 -17 13 -36 27 -22 12 12 4 33 -11 33 -5 0 -12 -5
-16 -11z"/>
<path d="M2187 2605 c-8 -18 11 -31 25 -17 11 11 3 32 -12 32 -4 0 -10 -7 -13
-15z"/>
<path d="M2274 2606 c-8 -22 3 -33 18 -18 9 9 9 15 0 24 -9 9 -13 7 -18 -6z"/>
<path d="M1982 2518 c5 -15 28 -18 29 -3 0 6 -7 12 -17 13 -10 3 -15 -1 -12
-10z"/>
<path d="M2063 2518 c2 -7 10 -13 17 -13 7 0 15 6 18 13 2 7 -5 12 -18 12 -13
0 -20 -5 -17 -12z"/>
<path d="M2143 2518 c2 -7 10 -13 17 -13 7 0 15 6 18 13 2 7 -5 12 -18 12 -13
0 -20 -5 -17 -12z"/>
<path d="M2225 2521 c-3 -5 -1 -12 5 -16 12 -7 30 2 30 16 0 12 -27 12 -35 0z"/>
<path d="M1940 2435 c0 -10 7 -15 18 -13 21 4 19 22 -2 26 -10 2 -16 -3 -16
-13z"/>
<path d="M2022 2438 c5 -15 28 -18 29 -3 0 6 -7 12 -17 13 -10 3 -15 -1 -12
-10z"/>
<path d="M2103 2438 c2 -7 10 -13 17 -13 7 0 15 6 18 13 2 7 -5 12 -18 12 -13
0 -20 -5 -17 -12z"/>
<path d="M2185 2441 c-3 -5 -1 -12 5 -16 12 -7 30 2 30 16 0 12 -27 12 -35 0z"/>
<path d="M2270 2434 c0 -9 5 -14 12 -12 18 6 21 28 4 28 -9 0 -16 -7 -16 -16z"/>
<path d="M1577 2152 c-26 -29 -22 -77 10 -101 44 -35 103 -3 103 55 0 56 -76
87 -113 46z m77 -38 c7 -19 -10 -44 -29 -44 -19 0 -38 28 -31 45 7 20 52 19
60 -1z"/>
<path d="M2570 2150 c-43 -43 -14 -110 47 -110 38 0 63 27 63 68 0 56 -70 82
-110 42z m80 -44 c0 -23 -30 -41 -48 -30 -23 15 -25 29 -7 48 12 12 21 13 36
6 10 -6 19 -17 19 -24z"/>
<path d="M1235 1681 c-26 -44 -153 -355 -148 -367 4 -11 18 -14 50 -12 l44 3
47 109 c26 60 52 111 57 113 8 2 115 -239 115 -260 0 -4 -78 -8 -172 -9 l-173
-3 -17 -34 c-31 -61 -32 -61 247 -61 207 0 254 3 258 14 3 8 -43 126 -101 262
l-107 249 -47 3 c-25 2 -49 -2 -53 -7z"/>
<path d="M1767 1676 c-76 -27 -117 -95 -103 -168 11 -58 79 -104 191 -128 142
-30 177 -91 72 -126 -26 -9 -33 -17 -35 -43 -6 -63 22 -70 115 -31 70 30 103
122 68 190 -22 43 -61 66 -165 95 -52 15 -108 34 -123 42 -40 20 -33 53 16 77
36 17 38 20 35 59 -3 48 -14 53 -71 33z"/>
<path d="M2344 1680 c-44 -10 -93 -47 -105 -79 -16 -39 -13 -106 5 -133 22
-34 79 -64 161 -84 100 -24 145 -49 145 -78 0 -27 -13 -39 -55 -53 -27 -9 -30
-14 -30 -54 l0 -44 35 3 c90 9 150 71 150 156 0 43 -4 53 -37 86 -28 27 -57
43 -110 58 -39 12 -77 22 -85 22 -7 0 -32 9 -56 20 -56 25 -55 56 1 83 39 20
58 58 40 85 -12 20 -21 22 -59 12z"/>
<path d="M2908 1680 c-78 -24 -118 -74 -118 -149 0 -66 42 -105 149 -137 136
-40 169 -54 175 -71 10 -24 -18 -58 -56 -69 -29 -9 -33 -14 -36 -48 -5 -54 6
-61 70 -42 86 25 138 97 122 171 -15 69 -61 100 -194 135 -97 26 -130 43 -130
69 0 21 27 47 55 53 16 3 20 11 20 48 0 49 -9 55 -57 40z"/>
<path d="M1897 1673 c-4 -3 -7 -21 -7 -40 0 -28 5 -35 34 -47 19 -8 40 -27 48
-43 10 -22 21 -29 52 -31 55 -5 63 8 41 63 -21 56 -82 105 -130 105 -17 0 -35
-3 -38 -7z"/>
<path d="M2460 1641 c0 -34 5 -42 35 -60 19 -11 40 -32 45 -46 9 -23 15 -26
52 -23 52 4 58 21 29 81 -24 49 -80 87 -130 87 -29 0 -31 -2 -31 -39z"/>
<path d="M3020 1641 c0 -34 5 -42 35 -60 19 -11 40 -32 47 -46 10 -23 17 -26
52 -23 37 3 41 6 44 33 5 62 -74 135 -148 135 -28 0 -30 -2 -30 -39z"/>
<path d="M1646 1331 c-11 -17 26 -101 55 -126 34 -28 100 -51 123 -42 11 4 16
19 16 46 0 32 -4 41 -22 47 -30 9 -58 34 -69 62 -7 18 -16 22 -53 22 -25 0
-47 -4 -50 -9z"/>
<path d="M2210 1320 c0 -71 71 -147 148 -157 35 -5 41 -2 47 17 11 36 -2 65
-37 81 -19 8 -39 27 -48 46 -14 30 -19 33 -62 33 -41 0 -48 -3 -48 -20z"/>
<path d="M2774 1326 c-6 -17 20 -83 44 -109 26 -29 90 -59 120 -55 24 3 27 7
27 43 0 36 -3 41 -38 58 -25 12 -42 28 -49 47 -9 27 -14 30 -54 30 -29 0 -47
-5 -50 -14z"/>
</g>
</svg>
