<?xml version="1.0" encoding="utf-8"?>
<!-- Generator: Adobe Illustrator 24.0.3, SVG Export Plug-In . SVG Version: 6.00 Build 0)  -->
<svg version="1.1" xmlns="http://www.w3.org/2000/svg" xmlns:xlink="http://www.w3.org/1999/xlink" x="0px" y="0px"
	 viewBox="0 0 379.8 443.4" style="enable-background:new 0 0 379.8 443.4;" xml:space="preserve">
<style type="text/css">
	.st0{display:none;}
	.st1{display:inline;fill:#E8386A;}
	.st2{fill:#070706;}
	.st3{fill:#060605;}
	.st4{fill:#080807;}
</style>
<g id="Layer_2" class="st0">
	<rect x="-971.8" y="-581" class="st1" width="2515.3" height="1594.7"/>
</g>
<g id="Layer_1">
	<g>
		<g>
			<path class="st2" d="M14.3,84.3c13.3-5.6,26.4-11.1,39.6-16.6c44.3-18.3,88.6-36.6,132.8-55c3.5-1.5,6.4-1.5,9.9,0
				c56,23.2,112.1,46.4,168.2,69.5c2.2,0.9,3.3,1.9,3.3,4.6c0.2,16.3,0.7,32.6,0.9,48.8c0.3,22.8,0.9,45.5,0.6,68.3
				c-0.4,26.6-1.7,53.1-6.5,79.3c-6.5,36.1-24.4,65.5-50.6,90.5c-24.4,23.3-52.8,38.5-86.1,45.2C127.8,438.8,50,374.5,26.2,308.1
				c-6.7-18.8-9.3-38.4-10.8-58.1c-3.5-45.5-1.9-91-1.1-136.5C14.4,103.8,14.3,94.2,14.3,84.3z M351.7,189.1
				c0-30.4-0.1-60.9,0.1-91.3c0-3.4-0.7-5.3-4.2-6.6c-8.7-3.2-17.2-7.1-25.8-10.5c-42-17-83.9-33.9-125.9-50.9
				c-4.2-1.7-8-1.7-12.3,0.1C133.9,50.6,84.2,71.3,34.4,92c-3,1.2-3.3,2.9-3.3,5.6c0.1,60.7,0,121.4,0.1,182.1c0,1.9,0.2,4.1,1,5.8
				c6,12.6,11.6,25.3,18.4,37.5c16.3,29.7,38.8,53.4,70,67.9c28.7,13.3,58.9,16.6,90,13.7c44-4.1,79.7-23.4,106.9-58.5
				c14-18,22.9-38.8,32.5-59.2c1.1-2.3,1.7-5,1.7-7.6C351.8,249.3,351.7,219.2,351.7,189.1z"/>
			<path class="st3" d="M86.4,285.5c1.5-7.1,2.4-14.4,4.8-21.2c3.8-10.5,11.9-16,23.2-16.5c2.6-0.1,5.4-0.6,7.6-1.8
				c1.4-0.8,2.7-3.1,2.7-4.8c0-1.2-2-3.3-3.4-3.6c-6.5-1.3-13-2.3-19.6-2.9c-10.3-0.9-20.6-1.3-30.8-2c-2.1-0.2-4.4-0.4-6.3-1.4
				c-1.7-0.9-3.9-2.8-3.9-4.4c0-1.4,2.3-3.9,3.9-4.2c6.6-1.3,13.4-2.2,20.2-2.8c10.8-1,21.6-1.4,32.3-2.4c3.3-0.3,7.8-0.7,7.7-5.4
				c0-4.6-4.2-5.4-7.9-6c-21-3.4-28.6-12.1-29.5-33.9c-0.2-4.5,0.4-8.9,0.7-13.4c0.4-4.6,3.2-6.8,7.6-6.8c4.5,0,7.2,2.4,7.5,7
				c0.4,7,0.6,13.9,1,20.9c0.5,9.1,5.3,12.3,13.6,8.2c4.2-2.1,8.8-4.7,11.5-8.4c6.9-9.4,16.2-12.8,27.2-12.7
				c25.6,0.2,51.2,0.4,76.8,0.7c6.8,0.1,12.1,3.3,16.9,8.3c4.3,4.5,9.1,8.9,14.5,11.8c8.5,4.6,13.5,1.2,14.2-8.5
				c0.6-7.6,0.9-15.3,2.3-22.7c0.5-2.9,3.7-5.3,5.6-8c1.8,2.5,4.5,4.9,5.3,7.7c2.8,9.8,3.7,19.9,0.9,30
				c-3.5,12.5-11.5,18.8-24.4,19.5c-2.1,0.1-4.6,0.1-6.3,1.2c-1.9,1.2-3.9,3.4-4.1,5.3c-0.2,1.2,2.6,3.9,4.4,4.2
				c8.2,1.3,16.4,2.1,24.7,2.9c8.9,0.8,17.9,1.3,26.8,2c1.1,0.1,2.5,0.2,3.3,0.9c1.8,1.4,3.3,3.2,4.9,4.8c-1.6,1.5-3.1,3.9-4.9,4.2
				c-7.8,1.3-15.8,2-23.7,2.7c-9.7,0.9-19.5,1.5-29.3,2.5c-3,0.3-6.7,1-6.4,5.4c0.3,4.2,3.7,5.1,7.1,5.6c1.8,0.3,3.7,0.1,5.5,0.3
				c14.4,1.6,23.1,10.1,24.1,25.2c0.6,8.4-0.2,16.9-0.9,25.3c-0.2,2-2.2,5.2-3.7,5.5c-1.7,0.3-5.1-1.7-5.7-3.5
				c-2.3-6.1-3.9-12.5-5.3-18.9c-0.8-3.9-0.2-8-1-11.8c-0.4-1.9-2.6-4.5-4.2-4.7c-5.1-0.5-10.2-0.1-15.3,0.4c-1.5,0.2-3.9,1.7-4.2,3
				c-2,7.7-7.6,12.8-12.7,18.1c-3.9,4.1-8.3,7.6-12.6,11.3c-6.2,5.3-13.5,7.7-21.6,7.8c-9.8,0.1-19.6,0.1-29.4,0
				c-8.9-0.1-17-2.7-24-8.3c-9.7-7.7-19-15.6-23.9-27.5c-0.8-1.8-3.2-3.8-5.2-4.1c-12.2-1.9-18.8,0.4-19.7,12.6
				c-0.4,5.6-1.1,11.3-2.1,16.8c-1,5.2-3.8,6.9-8.9,6.6c-4.9-0.3-5.8-3.7-6.2-7.6c-0.3-2.8-0.5-5.6-0.8-8.4
				C87,285.7,86.7,285.6,86.4,285.5z M183.1,182c-11.1,0-21.4-0.3-31.6,0.1c-7.1,0.3-8.3,1.2-8.4,8.3c-0.5,21.9-1.1,43.8-0.6,65.7
				c0.3,12.5,17.3,30.3,29.7,33.3c5.4,1.3,8.7-0.6,9.7-6.3c0.7-4.1,1.1-8.3,1.1-12.4c0.1-27.4,0.2-54.9,0.2-82.3
				C183.1,186.1,183.1,183.8,183.1,182z M199.8,180.8c-0.1,1.3-0.3,1.9-0.3,2.5c0,24.3-0.1,48.6,0.1,72.8c0.1,8.9,0.6,17.9,1.5,26.8
				c0.6,5.8,3.9,7.6,9.4,6.3c15.6-3.6,30.5-22.2,30.4-38.2c-0.1-14.5-0.6-28.9-0.9-43.3c-0.1-8.1,0-16.2,0-24.5
				C226.1,182.4,213.2,181.6,199.8,180.8z"/>
			<path class="st4" d="M191.9,105.9c20.9,0,41.5,19.6,41,39c0,1.5,0,3.2-0.7,4.4c-1.4,2.4-3.2,4.6-4.8,6.8
				c-2.1-1.8-4.8-3.3-6.3-5.6c-1.6-2.6-2.2-5.9-3.1-8.9c-3.5-11.6-18.8-23-29.2-20.4c-11.7,2.9-21.2,9.2-24.6,22.1
				c-0.9,3.5-2.2,7-4.2,10c-3,4.4-7.3,3.7-8.7-1.4c-1-3.7-1.5-8-0.8-11.7C153.8,121.8,173.3,105.8,191.9,105.9z"/>
		</g>
	</g>
</g>
</svg>
