<?xml version="1.0" standalone="no"?>
<!DOCTYPE svg PUBLIC "-//W3C//DTD SVG 20010904//EN"
 "http://www.w3.org/TR/2001/REC-SVG-20010904/DTD/svg10.dtd">
<svg version="1.0" xmlns="http://www.w3.org/2000/svg"
 width="546.000000pt" height="364.000000pt" viewBox="0 0 546.000000 364.000000"
 preserveAspectRatio="xMidYMid meet">

<g transform="translate(0.000000,364.000000) scale(0.100000,-0.100000)"
fill="#000000" stroke="none">
<path d="M900 1980 l0 -1330 1460 0 1460 0 0 1330 0 1330 -1460 0 -1460 0 0
-1330z m1675 1062 l210 -87 3 -180 c5 -298 -18 -393 -119 -500 -87 -92 -188
-135 -319 -135 -152 0 -303 97 -373 240 -37 75 -48 179 -45 395 l3 179 210 88
c116 48 212 87 215 88 3 0 100 -39 215 -88z m-389 -1167 c101 -30 155 -115
157 -248 l2 -82 -37 -3 -38 -3 0 59 c0 89 -24 156 -67 189 -30 23 -48 28 -107
31 -59 3 -79 -1 -115 -20 -111 -57 -121 -241 -19 -323 20 -15 76 -47 126 -70
122 -56 170 -88 212 -141 49 -62 63 -106 56 -186 -6 -83 -32 -143 -78 -184
-49 -43 -99 -59 -188 -59 -94 0 -157 23 -203 74 -44 49 -60 98 -61 186 l-1 70
35 0 35 0 12 -80 c6 -44 20 -95 29 -113 25 -46 79 -72 152 -72 119 0 192 72
192 188 0 109 -59 179 -200 238 -181 76 -239 128 -260 230 -14 69 -1 156 32
217 25 44 107 102 157 110 60 9 130 6 177 -8z m607 1 c66 -24 106 -58 134
-116 23 -45 27 -68 28 -135 l0 -80 -36 -3 -36 -3 -5 78 c-8 143 -54 196 -173
201 -124 6 -188 -47 -202 -167 -7 -65 16 -129 63 -170 18 -17 85 -55 148 -85
139 -66 176 -93 218 -160 29 -46 32 -59 32 -131 1 -44 -5 -97 -13 -119 -19
-55 -74 -112 -129 -133 -63 -24 -181 -24 -244 0 -93 36 -153 142 -146 259 l3
53 35 0 c38 0 47 -16 49 -91 2 -83 54 -158 118 -170 59 -11 139 1 176 26 56
38 72 74 72 161 0 64 -4 81 -25 112 -34 50 -90 89 -198 135 -119 52 -176 93
-209 149 -24 41 -27 57 -26 128 0 151 66 239 198 268 42 10 132 6 168 -7z
m614 -2 c101 -33 152 -114 161 -251 l5 -83 -40 0 -40 0 -6 78 c-9 142 -63 202
-182 202 -65 0 -115 -19 -149 -55 -32 -34 -51 -118 -41 -181 10 -69 71 -126
190 -178 207 -91 270 -163 268 -311 -1 -122 -38 -191 -128 -238 -54 -28 -189
-30 -257 -4 -93 36 -153 142 -146 259 3 53 3 53 39 56 l36 3 7 -71 c8 -91 24
-129 72 -168 34 -28 46 -32 102 -32 77 0 118 16 159 63 36 41 48 86 41 157 -9
95 -68 149 -239 224 -177 78 -223 133 -224 266 0 92 17 150 55 194 67 76 207
107 317 70z m-1906 -36 c6 -24 67 -248 136 -498 69 -250 126 -464 127 -475 1
-23 -39 -34 -57 -16 -7 7 -28 76 -47 154 l-35 142 -167 3 -166 2 -11 -32 c-5
-18 -22 -82 -36 -142 -34 -139 -33 -136 -61 -136 -33 0 -37 17 -20 81 50 190
259 945 263 952 2 4 17 7 33 7 26 0 31 -5 41 -42z"/>
<path d="M2160 3009 l-185 -78 0 -228 0 -228 28 -59 c76 -164 206 -243 384
-234 148 8 259 85 326 226 l32 67 0 228 0 229 -190 79 c-104 43 -194 78 -200
78 -5 -1 -93 -37 -195 -80z m271 -138 c19 -20 29 -40 29 -60 0 -41 -26 -41
-35 -1 -4 20 -17 36 -36 45 -26 14 -32 14 -58 0 -19 -9 -32 -25 -36 -45 -9
-39 -35 -40 -35 -1 0 18 11 40 29 60 40 43 100 44 142 2z m177 -124 c4 -53
-21 -87 -63 -87 -15 0 -25 -6 -25 -15 0 -11 18 -15 78 -17 60 -2 77 -6 77 -18
0 -12 -17 -16 -77 -18 -60 -2 -78 -6 -78 -17 0 -9 9 -15 23 -15 44 0 67 -27
67 -79 0 -26 -3 -51 -7 -54 -14 -14 -33 17 -33 54 0 37 -2 39 -30 39 -19 0
-30 -5 -30 -14 0 -7 -18 -30 -40 -50 -38 -34 -44 -36 -108 -36 -60 0 -71 3
-104 30 -20 17 -40 40 -43 51 -5 15 -14 19 -33 17 -24 -3 -27 -8 -30 -45 -3
-35 -7 -43 -23 -43 -16 0 -19 7 -19 45 0 52 25 85 65 85 15 0 25 6 25 15 0 11
-18 15 -77 17 -61 2 -78 6 -78 18 0 12 17 16 78 18 59 2 77 6 77 17 0 9 -10
15 -25 15 -40 0 -65 33 -65 85 0 38 3 45 20 45 17 0 20 -7 20 -45 0 -39 3 -45
20 -45 12 0 32 12 45 28 23 27 25 27 145 27 120 0 122 0 145 -27 13 -16 33
-28 45 -28 16 0 20 6 20 34 0 78 33 89 38 13z"/>
<path d="M2247 2713 c-4 -3 -7 -48 -7 -99 0 -88 1 -93 29 -123 16 -17 38 -31
50 -31 20 0 21 5 21 130 l0 130 -43 0 c-24 0 -47 -3 -50 -7z"/>
<path d="M2380 2591 c0 -126 1 -131 21 -131 11 0 34 13 50 30 29 29 30 30 27
127 l-3 98 -47 3 -48 3 0 -130z"/>
<path d="M1457 1784 c-3 -6 -32 -107 -62 -225 -31 -118 -63 -239 -71 -269 -8
-30 -14 -58 -14 -62 0 -4 65 -8 145 -8 109 0 145 3 145 13 -1 33 -137 560
-143 551z"/>
</g>
</svg>
